<svg width="90" height="90" viewBox="0 0 90 90" fill="none" xmlns="http://www.w3.org/2000/svg">
<path d="M46.4798 48.2138C46.4798 49.4826 44.9345 50.1286 44.0329 49.2269C43.1406 48.3346 43.761 46.78 45.0461 46.78C45.8385 46.78 46.4798 47.419 46.4798 48.2138ZM52.7424 38.749V35.4307C52.7424 31.1805 49.2986 27.7366 45.0484 27.7366C40.7982 27.7366 37.3543 31.1805 37.3543 35.4307V38.749C37.445 38.7374 37.7796 38.6816 38.2769 38.6816C52.4659 38.7049 51.8873 38.6235 52.7424 38.749ZM45.0461 12.897L18.7804 23.8699C18.0112 28.8451 13.4519 65.6096 44.7626 77.4632H45.3319C76.6425 65.6119 72.0832 28.8451 71.3141 23.8699L45.0461 12.897ZM58.0639 55.931C58.0639 59.3795 55.2684 62.1751 51.8199 62.1751H38.2769C34.8284 62.1751 32.0329 59.3795 32.0329 55.931V44.9256C32.0329 42.6135 33.297 40.55 35.2467 39.4647V35.4307C35.2467 30.0186 39.6363 25.629 45.0484 25.629C50.4605 25.629 54.8501 30.0186 54.8501 35.4307V39.4647C56.7556 40.5267 58.0615 42.567 58.0639 44.9256V55.931ZM51.8175 40.787H38.2746C35.9903 40.787 34.1382 42.639 34.1382 44.9233V55.9287C34.1382 58.213 35.9903 60.0651 38.2746 60.0651H51.8175C54.1018 60.0651 55.9539 58.213 55.9539 55.9287V44.9233C55.9539 43.78 55.4914 42.7459 54.7432 41.9977C53.4372 40.6917 51.8617 40.7963 51.8175 40.787ZM46.0987 51.5949V54.8946C46.0987 55.4756 45.627 55.9473 45.0461 55.9473C44.4651 55.9473 43.9934 55.4756 43.9934 54.8946H43.9887V51.5949C42.5503 51.1464 41.5023 49.8056 41.5023 48.2138C41.5023 46.2618 43.0918 44.6723 45.0437 44.6723C46.998 44.6723 48.5852 46.2595 48.5852 48.2138C48.5852 49.8056 47.5371 51.1464 46.0987 51.5949ZM78.2854 22.0085C77.9089 19.9729 76.5286 18.2649 74.6185 17.4655L47.4093 6.09759C45.8966 5.46552 44.1932 5.46552 42.6804 6.09759L15.4713 17.4655C13.5612 18.2649 12.1808 19.9729 11.8044 22.0085C11.7161 22.4895 9.65721 33.9132 12.2064 47.1286C15.5689 64.5709 25.51 77.9349 42.4132 84.2579C43.101 84.5135 43.8284 84.646 44.5627 84.646C45.211 84.6112 46.2614 84.7878 47.6766 84.2579C64.5821 77.9349 74.5209 64.5685 77.8834 47.1286C80.4326 33.9132 78.3737 22.4895 78.2854 22.0085ZM45.8966 79.4965L45.8989 79.5012C45.5526 79.6313 44.3722 79.5964 44.0887 79.4547C8.79741 66.1557 16.7773 23.0705 16.7982 22.945V22.9427C16.8679 22.5523 17.1421 22.2502 17.4907 22.1293L44.6417 10.787V10.7847C44.9322 10.6638 45.2482 10.6824 45.5108 10.8102L72.6595 22.1526H72.6618C73.0174 22.3013 73.2498 22.6243 73.2986 22.9799C73.5495 24.3811 80.7718 66.4485 45.8966 79.4965Z" fill="url(#paint0_linear_398_4821)"/>
<defs>
<linearGradient id="paint0_linear_398_4821" x1="18.5858" y1="13.7015" x2="71.5042" y2="66.6199" gradientUnits="userSpaceOnUse">
<stop stop-color="#008BD0"/>
</linearGradient>
</defs>
</svg>
