<svg width="90" height="90" viewBox="0 0 90 90" fill="none" xmlns="http://www.w3.org/2000/svg">
<g clip-path="url(#clip0_405_4892)">
<path d="M24.1073 36.593C21.3732 37.9827 18.3337 38.663 15.268 38.5714C12.2023 38.663 9.16283 37.9827 6.42871 36.593V72.442C7.22907 72.3616 8.03585 72.3214 8.83943 72.3214C11.9051 72.2298 14.9446 72.9101 17.6787 74.2998V62.6786C17.6787 60.1071 20.2244 57.9921 24.1073 56.9491V36.593Z" fill="#008BD0"/>
<path d="M8.83929 81.9643C13.7211 81.9643 17.6786 80.5252 17.6786 78.75C17.6786 76.9748 13.7211 75.5357 8.83929 75.5357C3.95748 75.5357 0 76.9748 0 78.75C0 80.5252 3.95748 81.9643 8.83929 81.9643Z" fill="#008BD0"/>
<path d="M0 83.1999V86.7855C0 88.0712 3.52446 89.9997 8.83929 89.9997C14.1541 89.9997 17.6786 88.0712 17.6786 86.7855V83.1999C14.9445 84.5896 11.9049 85.2699 8.83929 85.1783C5.77363 85.2699 2.73412 84.5896 0 83.1999ZM47.4445 14.6729C48.6338 15.5649 50.077 16.0519 51.5636 16.0599C50.1709 13.6683 49.0687 11.119 48.2802 8.46616C48.1657 8.05548 48.2191 7.61615 48.4286 7.24483C48.6381 6.87351 48.9865 6.60061 49.3971 6.48616C49.8078 6.37172 50.2472 6.4251 50.6185 6.63457C50.9898 6.84404 51.2627 7.19244 51.3771 7.60312C52.2722 10.6226 53.6408 13.4808 55.432 16.0712H57.0841C58.8786 13.4836 60.2471 10.6252 61.1373 7.60473C61.2516 7.19384 61.5243 6.84515 61.8957 6.63537C62.267 6.4256 62.7064 6.37193 63.1173 6.48616C63.5282 6.60039 63.8769 6.87317 64.0867 7.2445C64.2965 7.61582 64.3501 8.05526 64.2359 8.46616C63.4482 11.1167 62.347 13.6638 60.9557 16.0535C62.4125 16.0312 63.8247 15.5479 64.9896 14.6729C68.752 11.7319 70.0714 7.05509 70.5054 3.64795C70.5478 3.36232 70.5053 3.07052 70.3833 2.8088C70.2613 2.54708 70.0651 2.32697 69.8191 2.1758C69.5478 1.9989 69.2309 1.90472 68.9071 1.90472C68.5832 1.90472 68.2663 1.9989 67.995 2.1758C66.87 2.88295 65.5618 3.24295 64.2327 3.21402C62.3709 3.22906 60.5748 2.52696 59.2168 1.2533C58.8235 0.85621 58.3554 0.540997 57.8395 0.325878C57.3237 0.11076 56.7703 0 56.2114 0C55.6525 0 55.0992 0.11076 54.5833 0.325878C54.0675 0.540997 53.5994 0.85621 53.2061 1.2533C51.8481 2.526 50.0529 3.22799 48.1918 3.21402C46.8696 3.24318 45.5678 2.88449 44.4471 2.18223C44.1733 2.00812 43.8554 1.91578 43.5308 1.91607C43.2063 1.91635 42.8886 2.00925 42.615 2.18384C42.37 2.33464 42.1746 2.55409 42.0532 2.81494C41.9317 3.0758 41.8896 3.36657 41.932 3.65116C42.3707 7.0583 43.6854 11.7319 47.4445 14.6729Z" fill="#008BD0"/>
<path d="M24.9106 12.8572C29.7924 12.8572 33.7499 11.4181 33.7499 9.64287C33.7499 7.86767 29.7924 6.42859 24.9106 6.42859C20.0288 6.42859 16.0713 7.86767 16.0713 9.64287C16.0713 11.4181 20.0288 12.8572 24.9106 12.8572Z" fill="#008BD0"/>
<path d="M15.268 35.3572C20.1498 35.3572 24.1073 33.9181 24.1073 32.1429C24.1073 30.3677 20.1498 28.9286 15.268 28.9286C10.3862 28.9286 6.42871 30.3677 6.42871 32.1429C6.42871 33.9181 10.3862 35.3572 15.268 35.3572Z" fill="#008BD0"/>
<path d="M88.7415 51.7966C83.5118 29.6004 69.549 20.52 65.3013 18.2218C64.5189 18.6021 63.6909 18.8803 62.8375 19.0495L65.822 21.8347C65.9764 21.9787 66.1009 22.1518 66.1884 22.3439C66.2759 22.5361 66.3247 22.7436 66.332 22.9546C66.3393 23.1656 66.305 23.376 66.231 23.5738C66.157 23.7715 66.0448 23.9528 65.9008 24.1072C65.7567 24.2616 65.5837 24.3861 65.3915 24.4736C65.1994 24.5611 64.9918 24.6099 64.7808 24.6172C64.5698 24.6245 64.3594 24.5902 64.1616 24.5162C63.9639 24.4422 63.7826 24.33 63.6283 24.1859L58.3793 19.2857H57.865V24.1072C57.865 24.5334 57.6957 24.9422 57.3943 25.2436C57.0929 25.545 56.6841 25.7143 56.2579 25.7143C55.8317 25.7143 55.4229 25.545 55.1215 25.2436C54.8201 24.9422 54.6508 24.5334 54.6508 24.1072V19.2857H54.1365L48.8875 24.1859C48.5757 24.477 48.1611 24.6324 47.7347 24.6178C47.3084 24.6031 46.9054 24.4198 46.6142 24.108C46.3231 23.7962 46.1678 23.3815 46.1824 22.9552C46.197 22.5288 46.3804 22.1258 46.6922 21.8347L49.6606 19.0656C48.8015 18.8985 47.9674 18.6214 47.1791 18.2411C43.1832 20.4927 39.5805 23.3799 36.5125 26.7895L36.4756 26.8313C35.3021 28.1133 34.198 29.4572 33.1681 30.8572C32.9121 31.1902 32.5359 31.4098 32.12 31.469C31.7041 31.5281 31.2816 31.422 30.9429 31.1735C30.6043 30.925 30.3764 30.5537 30.3081 30.1392C30.2397 29.7248 30.3364 29.3 30.5774 28.9559C31.5716 27.604 32.6303 26.3007 33.7499 25.0506V14.0898C31.016 15.4806 27.9765 16.162 24.9106 16.0715C21.8449 16.163 18.8054 15.4827 16.0713 14.0931V25.7352C22.5368 25.9425 27.3213 28.6281 27.3213 32.1429V56.3706C28.1216 56.2902 28.9284 56.25 29.732 56.25C36.6025 56.25 41.7856 59.0143 41.7856 62.6786V80.3572H71.0195C72.699 80.3572 81.3325 80.0357 86.3066 73.7679C90.1959 68.85 91.0156 61.4588 88.7415 51.7966ZM64.2856 51.4286C64.2856 53.1336 63.6083 54.7687 62.4027 55.9743C61.1971 57.1799 59.562 57.8572 57.857 57.8572V59.4643C57.857 59.8905 57.6877 60.2993 57.3863 60.6007C57.0849 60.9021 56.6761 61.0715 56.2499 61.0715C55.8236 61.0715 55.4148 60.9021 55.1134 60.6007C54.812 60.2993 54.6427 59.8905 54.6427 59.4643V57.8572C52.9378 57.8572 51.3026 57.1799 50.097 55.9743C48.8914 54.7687 48.2141 53.1336 48.2141 51.4286C48.2141 51.0024 48.3835 50.5936 48.6849 50.2922C48.9863 49.9908 49.3951 49.8215 49.8213 49.8215C50.2475 49.8215 50.6563 49.9908 50.9577 50.2922C51.2591 50.5936 51.4284 51.0024 51.4284 51.4286C51.4284 52.2811 51.7671 53.0986 52.3699 53.7014C52.9727 54.3042 53.7902 54.6429 54.6427 54.6429V48.2143C52.9378 48.2143 51.3026 47.537 50.097 46.3314C48.8914 45.1258 48.2141 43.4907 48.2141 41.7857C48.2141 40.0808 48.8914 38.4456 50.097 37.2401C51.3026 36.0345 52.9378 35.3572 54.6427 35.3572V33.75C54.6427 33.3238 54.812 32.915 55.1134 32.6136C55.4148 32.3122 55.8236 32.1429 56.2499 32.1429C56.6761 32.1429 57.0849 32.3122 57.3863 32.6136C57.6877 32.915 57.857 33.3238 57.857 33.75V35.3572C59.562 35.3572 61.1971 36.0345 62.4027 37.2401C63.6083 38.4456 64.2856 40.0808 64.2856 41.7857C64.2856 42.212 64.1163 42.6208 63.8149 42.9222C63.5135 43.2236 63.1047 43.3929 62.6784 43.3929C62.2522 43.3929 61.8434 43.2236 61.542 42.9222C61.2406 42.6208 61.0713 42.212 61.0713 41.7857C61.0713 40.9333 60.7326 40.1157 60.1299 39.5129C59.5271 38.9101 58.7095 38.5715 57.857 38.5715V45C59.562 45 61.1971 45.6773 62.4027 46.8829C63.6083 48.0885 64.2856 49.7236 64.2856 51.4286ZM83.7883 71.7638C79.7318 76.8841 72.4402 77.1429 71.0195 77.1429C70.5933 77.1429 70.1845 76.9736 69.8831 76.6722C69.5817 76.3708 69.4124 75.962 69.4124 75.5357C69.4124 75.1095 69.5817 74.7007 69.8831 74.3993C70.1845 74.0979 70.5933 73.9286 71.0195 73.9286C72.1815 73.9286 78.1311 73.7277 81.2667 69.7677C82.7494 67.6726 83.54 65.1665 83.5279 62.5998C83.5809 61.7175 84.3283 61.0409 85.2106 61.0715C85.4214 61.0816 85.6282 61.1331 85.8192 61.2231C86.0101 61.3132 86.1814 61.4399 86.3233 61.5962C86.4653 61.7524 86.575 61.9351 86.6463 62.1338C86.7177 62.3325 86.7491 62.5433 86.739 62.7541C86.7253 65.9926 85.693 69.1447 83.7883 71.7638Z" fill="#008BD0"/>
<path d="M51.4283 41.7857C51.4283 42.6382 51.7669 43.4557 52.3697 44.0585C52.9725 44.6613 53.7901 45 54.6426 45V38.5714C53.7901 38.5714 52.9725 38.9101 52.3697 39.5129C51.7669 40.1156 51.4283 40.9332 51.4283 41.7857ZM57.8569 54.6428C58.7093 54.6428 59.5269 54.3042 60.1297 53.7014C60.7325 53.0986 61.0712 52.281 61.0712 51.4286C61.0712 50.5761 60.7325 49.7585 60.1297 49.1557C59.5269 48.5529 58.7093 48.2143 57.8569 48.2143V54.6428ZM20.8926 67.1287V83.5714C20.8926 84.8571 24.417 86.7857 29.7319 86.7857C35.0467 86.7857 38.5711 84.8571 38.5711 83.5714V67.1287C35.837 68.5184 32.7975 69.1987 29.7319 69.1071C26.6662 69.1987 23.6267 68.5184 20.8926 67.1287Z" fill="#008BD0"/>
<path d="M29.7319 65.8929C34.6137 65.8929 38.5711 64.4538 38.5711 62.6786C38.5711 60.9034 34.6137 59.4643 29.7319 59.4643C24.8501 59.4643 20.8926 60.9034 20.8926 62.6786C20.8926 64.4538 24.8501 65.8929 29.7319 65.8929Z" fill="#008BD0"/>
<path d="M76.6604 11.25C76.6604 13.8857 73.7997 16.0393 70.2319 16.0714C69.632 16.0726 69.0337 16.0079 68.4479 15.8786C68.3625 15.9864 68.2592 16.0788 68.1426 16.1518C68.3997 16.3125 68.689 16.4893 68.9944 16.6661C69.9747 17.3089 71.1158 18.0964 72.3694 19.0768C72.4979 19.1732 72.6104 19.2696 72.739 19.3821C80.7426 19.9768 83.2819 23.3196 83.3622 23.4161C83.5115 23.6312 83.711 23.8066 83.9435 23.9271C84.1759 24.0475 84.4343 24.1093 84.6961 24.1071C85.0121 24.1109 85.3213 24.0153 85.5801 23.8339C85.9324 23.5983 86.1773 23.233 86.2616 22.8176C86.3459 22.4022 86.2627 21.9704 86.0301 21.6161C85.9015 21.4232 83.6837 18.2411 77.2069 16.7786C78.0239 16.1039 78.6853 15.2605 79.1458 14.3062C79.6063 13.3519 79.8549 12.3094 79.8747 11.25C79.7675 9.51085 79.1151 7.8497 78.0101 6.50241C76.9052 5.15513 75.4039 4.19019 73.7194 3.74463C73.7166 3.85242 73.7059 3.95986 73.6872 4.06606C73.5635 5.04641 73.3819 6.01713 73.1408 6.97499C74.0894 7.25074 74.9329 7.80626 75.5608 8.56896C76.1887 9.33165 76.572 10.266 76.6604 11.25Z" fill="#008BD0"/>
</g>
<defs>
<clipPath id="clip0_405_4892">
<rect width="90" height="90" fill="white"/>
</clipPath>
</defs>
</svg>
