<svg width="90" height="90" viewBox="0 0 90 90" fill="none" xmlns="http://www.w3.org/2000/svg">
<path d="M67.448 19.5795H62.94C61.666 19.5795 60.686 20.5595 60.686 21.8335C60.686 23.1075 61.666 24.0875 62.94 24.0875H67.448C68.722 24.0875 69.702 23.1075 69.702 21.8335C69.702 20.5595 68.722 19.5795 67.448 19.5795ZM44.614 11.7395L42.36 7.23154C41.772 6.15354 40.4 5.66354 39.322 6.25154C38.244 6.83954 37.754 8.21154 38.342 9.28954L40.596 13.7975C41.184 14.8755 42.458 15.3655 43.634 14.7775C44.81 14.2875 45.202 12.9155 44.614 11.7395ZM59.412 6.25154C58.334 5.66354 56.962 6.15354 56.374 7.23154L54.12 11.7395C53.532 12.8175 54.022 14.1895 55.1 14.7775C56.178 15.3655 57.55 14.8755 58.138 13.7975L60.392 9.28954C60.98 8.11354 60.588 6.83954 59.412 6.25154ZM35.892 19.5795H31.384C30.11 19.5795 29.13 20.5595 29.13 21.8335C29.13 23.1075 30.11 24.0875 31.384 24.0875H35.892C37.166 24.0875 38.146 23.1075 38.146 21.8335C38.146 20.5595 37.068 19.5795 35.892 19.5795ZM22.27 42.3155H13.254C11.98 42.3155 11 43.2955 11 44.5695V80.7315C11 82.0055 11.98 82.9855 13.254 82.9855H22.27C23.544 82.9855 24.524 82.0055 24.524 80.7315V44.5695C24.524 43.2955 23.544 42.3155 22.27 42.3155ZM78.718 48.2935C78.326 44.7655 75.092 42.3155 71.564 42.3155H53.924C55.394 39.6695 56.178 32.0255 56.178 28.9875C56.08 23.8915 51.866 19.7755 46.77 19.7755H44.908C43.634 19.7755 42.654 20.7555 42.654 22.0295C42.654 27.2235 40.596 36.6315 36.774 40.5515C34.226 43.0995 31.972 44.0795 29.13 45.5495V79.4575C33.54 80.9275 39.224 83.0835 47.75 83.0835H62.548C67.448 83.0835 71.172 78.5755 69.31 73.7735C72.152 72.9895 74.308 70.3435 74.308 67.2075C74.308 66.3255 74.112 65.4435 73.818 64.7575C78.62 63.4835 80.482 57.5055 77.052 53.6835C78.228 52.2135 78.914 50.3515 78.718 48.2935Z" fill="#008BD0"/>
</svg>
