<svg width="54" height="54" viewBox="0 0 54 54" fill="none" xmlns="http://www.w3.org/2000/svg">
<g clip-path="url(#clip0_370_4692)">
<path d="M10.9688 48.5156C9.80061 48.5156 8.65869 48.1692 7.68742 47.5202C6.71614 46.8713 5.95912 45.9488 5.51209 44.8696C5.06506 43.7904 4.9481 42.6028 5.17599 41.4571C5.40388 40.3114 5.9664 39.259 6.7924 38.433C7.61841 37.607 8.6708 37.0445 9.8165 36.8166C10.9622 36.5887 12.1498 36.7057 13.229 37.1527C14.3082 37.5997 15.2306 38.3568 15.8796 39.328C16.5286 40.2993 16.875 41.4412 16.875 42.6094C16.8733 44.1753 16.2505 45.6766 15.1433 46.7839C14.036 47.8912 12.5347 48.514 10.9688 48.5156ZM10.9688 38.3906C10.1344 38.3906 9.31871 38.6381 8.62494 39.1016C7.93117 39.5652 7.39044 40.2241 7.07114 40.9949C6.75183 41.7658 6.66828 42.6141 6.83106 43.4324C6.99385 44.2508 7.39564 45.0025 7.98565 45.5925C8.57565 46.1825 9.32736 46.5843 10.1457 46.7471C10.9641 46.9098 11.8123 46.8263 12.5832 46.507C13.3541 46.1877 14.013 45.647 14.4765 44.9532C14.9401 44.2594 15.1875 43.4438 15.1875 42.6094C15.1875 41.4905 14.743 40.4174 13.9519 39.6263C13.1607 38.8351 12.0876 38.3906 10.9688 38.3906Z" fill="#008BD0"/>
<path d="M43.0313 48.5156C41.8631 48.5156 40.7212 48.1692 39.7499 47.5202C38.7786 46.8713 38.0216 45.9488 37.5746 44.8696C37.1276 43.7904 37.0106 42.6028 37.2385 41.4571C37.4664 40.3114 38.0289 39.259 38.8549 38.433C39.6809 37.607 40.7333 37.0445 41.879 36.8166C43.0247 36.5887 44.2123 36.7057 45.2915 37.1527C46.3707 37.5997 47.2931 38.3568 47.9421 39.328C48.5911 40.2993 48.9375 41.4412 48.9375 42.6094C48.9358 44.1753 48.313 45.6766 47.2058 46.7839C46.0985 47.8912 44.5972 48.514 43.0313 48.5156ZM43.0313 38.3906C42.1969 38.3906 41.3812 38.6381 40.6874 39.1016C39.9937 39.5652 39.4529 40.2241 39.1336 40.9949C38.8143 41.7658 38.7308 42.6141 38.8936 43.4324C39.0563 44.2508 39.4581 45.0025 40.0481 45.5925C40.6381 46.1825 41.3899 46.5843 42.2082 46.7471C43.0266 46.9098 43.8748 46.8263 44.6457 46.507C45.4166 46.1877 46.0755 45.647 46.539 44.9532C47.0026 44.2594 47.25 43.4438 47.25 42.6094C47.25 41.4905 46.8055 40.4174 46.0144 39.6263C45.2232 38.8351 44.1501 38.3906 43.0313 38.3906Z" fill="#008BD0"/>
<path d="M16.0312 41.7656H37.9688V43.4531H16.0312V41.7656Z" fill="#008BD0"/>
<path d="M54 43.4531H48.0938V41.7656H52.3125V35.6094C52.3078 34.7403 51.9791 33.9042 51.3906 33.2647C50.8021 32.6251 49.9962 32.228 49.1305 32.1511L42.6094 31.6079L35.0378 22.3594H10.6682L6.55491 31.4181L3.13245 33.1277C2.69719 33.3433 2.33108 33.6765 2.07567 34.0896C1.82026 34.5028 1.68579 34.9792 1.68753 35.4649V41.7656H5.90628V43.4531H2.64704e-05V35.4649C-0.00278518 34.6655 0.218443 33.8814 0.638626 33.2013C1.05881 32.5213 1.66113 31.9726 2.37729 31.6174L5.26186 30.1757L9.58608 20.6719H35.8372L43.4531 29.9858L49.2666 30.4699C50.5566 30.5761 51.7596 31.1636 52.6365 32.1157C53.5134 33.0679 54.0001 34.315 54 35.6094V43.4531Z" fill="#008BD0"/>
<path d="M39.6563 32.4844H8.66113L13.5507 24.0469H33.3282L39.6563 32.4844ZM11.5889 30.7969H36.2813L32.4844 25.7344H14.5231L11.5889 30.7969Z" fill="#008BD0"/>
<path d="M22.7812 24.8906H24.4688V31.6406H22.7812V24.8906Z" fill="#008BD0"/>
<path d="M0.84375 35.8594H3.375V37.5469H0.84375V35.8594Z" fill="#008BD0"/>
<path d="M54 39.2344H51.4688C50.7974 39.2344 50.1536 38.9677 49.6789 38.493C49.2042 38.0183 48.9375 37.3745 48.9375 36.7031C48.9375 36.0318 49.2042 35.388 49.6789 34.9133C50.1536 34.4386 50.7974 34.1719 51.4688 34.1719H53.1151V35.6094H54V39.2344ZM51.4688 35.8594C51.245 35.8594 51.0304 35.9483 50.8721 36.1065C50.7139 36.2647 50.625 36.4793 50.625 36.7031C50.625 36.9269 50.7139 37.1415 50.8721 37.2997C51.0304 37.458 51.245 37.5469 51.4688 37.5469H52.3125V35.8594H51.4688Z" fill="#008BD0"/>
<path d="M24.4688 35.0156H27.8438V36.7031H24.4688V35.0156Z" fill="#008BD0"/>
<path d="M10.9688 45.1406C10.4681 45.1406 9.97873 44.9922 9.56246 44.714C9.1462 44.4359 8.82177 44.0406 8.63018 43.578C8.4386 43.1155 8.38847 42.6066 8.48614 42.1156C8.58381 41.6245 8.82489 41.1735 9.17889 40.8195C9.53289 40.4655 9.98391 40.2244 10.4749 40.1268C10.9659 40.0291 11.4749 40.0792 11.9374 40.2708C12.3999 40.4624 12.7953 40.7868 13.0734 41.2031C13.3515 41.6194 13.5 42.1087 13.5 42.6094C13.5 43.2807 13.2333 43.9245 12.7586 44.3992C12.2839 44.8739 11.6401 45.1406 10.9688 45.1406ZM10.9688 41.7656C10.8019 41.7656 10.6387 41.8151 10.5 41.9078C10.3612 42.0005 10.2531 42.1323 10.1892 42.2865C10.1254 42.4407 10.1087 42.6103 10.1412 42.774C10.1738 42.9377 10.2541 43.088 10.3721 43.206C10.4901 43.324 10.6405 43.4044 10.8041 43.4369C10.9678 43.4695 11.1375 43.4528 11.2916 43.3889C11.4458 43.325 11.5776 43.2169 11.6703 43.0781C11.763 42.9394 11.8125 42.7763 11.8125 42.6094C11.8125 42.3856 11.7236 42.171 11.5654 42.0128C11.4071 41.8545 11.1925 41.7656 10.9688 41.7656Z" fill="#008BD0"/>
<path d="M43.0313 45.1406C42.5306 45.1406 42.0412 44.9922 41.625 44.714C41.2087 44.4359 40.8843 44.0406 40.6927 43.578C40.5011 43.1155 40.451 42.6066 40.5486 42.1156C40.6463 41.6245 40.8874 41.1735 41.2414 40.8195C41.5954 40.4655 42.0464 40.2244 42.5374 40.1268C43.0284 40.0291 43.5374 40.0792 43.9999 40.2708C44.4624 40.4624 44.8578 40.7868 45.1359 41.2031C45.414 41.6194 45.5625 42.1087 45.5625 42.6094C45.5625 43.2807 45.2958 43.9245 44.8211 44.3992C44.3464 44.8739 43.7026 45.1406 43.0313 45.1406ZM43.0313 41.7656C42.8644 41.7656 42.7012 41.8151 42.5625 41.9078C42.4237 42.0005 42.3156 42.1323 42.2517 42.2865C42.1879 42.4407 42.1712 42.6103 42.2037 42.774C42.2363 42.9377 42.3166 43.088 42.4346 43.206C42.5526 43.324 42.703 43.4044 42.8666 43.4369C43.0303 43.4695 43.2 43.4528 43.3541 43.3889C43.5083 43.325 43.6401 43.2169 43.7328 43.0781C43.8255 42.9394 43.875 42.7763 43.875 42.6094C43.875 42.3856 43.7861 42.171 43.6279 42.0128C43.4696 41.8545 43.255 41.7656 43.0313 41.7656Z" fill="#008BD0"/>
</g>
<defs>
<clipPath id="clip0_370_4692">
<rect width="54" height="54" fill="white"/>
</clipPath>
</defs>
</svg>
