<svg width="24" height="24" viewBox="0 0 24 24" fill="none" xmlns="http://www.w3.org/2000/svg">
<g clip-path="url(#clip0_22_1198)">
<rect width="24" height="24" rx="12" fill="#FF4E4E"/>
<path d="M36 0L-12 0L-12 24L36 24L36 0Z" fill="#509E2F"/>
<path d="M36 0L-12 0L-12 16L36 16V0Z" fill="#EF3340"/>
<path d="M36 0L-12 0L-12 8L36 8V0Z" fill="#00B5E2"/>
<path d="M11.1992 15.5995C13.1877 15.5995 14.7997 13.9875 14.7997 11.999C14.7997 10.0105 13.1877 8.39844 11.1992 8.39844C9.21065 8.39844 7.59863 10.0105 7.59863 11.999C7.59863 13.9875 9.21065 15.5995 11.1992 15.5995Z" fill="white"/>
<path d="M12.0004 14.9988C13.6569 14.9988 14.9998 13.6559 14.9998 11.9994C14.9998 10.3429 13.6569 9 12.0004 9C10.3439 9 9.00098 10.3429 9.00098 11.9994C9.00098 13.6559 10.3439 14.9988 12.0004 14.9988Z" fill="#ED2939"/>
<path d="M15.1988 9.99951L15.5817 11.0752L16.6131 10.5848L16.1227 11.6163L17.1984 11.9991L16.1227 12.382L16.6131 13.4134L15.5817 12.923L15.1988 13.9987L14.816 12.923L13.7845 13.4134L14.275 12.382L13.1992 11.9991L14.275 11.6163L13.7845 10.5848L14.816 11.0752L15.1988 9.99951Z" fill="white"/>
</g>
<defs>
<clipPath id="clip0_22_1198">
<rect width="24" height="24" rx="12" fill="white"/>
</clipPath>
</defs>
</svg>
