<svg width="24" height="24" viewBox="0 0 24 24" fill="none" xmlns="http://www.w3.org/2000/svg">
<g clip-path="url(#clip0_22_1118)">
<rect width="24" height="24" rx="12" fill="#FF4E4E"/>
<mask id="mask0_22_1118" style="mask-type:luminance" maskUnits="userSpaceOnUse" x="-12" y="0" width="48" height="24">
<path d="M-12 0L-12 24L36 24L36 0L-12 0Z" fill="white"/>
</mask>
<g mask="url(#mask0_22_1118)">
<path d="M-12.001 0.00012207L-12.001 24.0001L35.999 24.0001L35.999 0.00012207L-12.001 0.00012207Z" fill="#001E6D"/>
<path fill-rule="evenodd" clip-rule="evenodd" d="M6.63253 12.0001L-13.0742 2.14677L-10.9276 -2.14648L11.9991 9.31686L34.9258 -2.14648L37.0724 2.14677L17.3657 12.0001L37.0724 21.8535L34.9258 26.1468L11.9991 14.6834L-10.9276 26.1468L-13.0742 21.8535L6.63253 12.0001Z" fill="white"/>
<mask id="mask1_22_1118" style="mask-type:luminance" maskUnits="userSpaceOnUse" x="-13" y="0" width="49" height="25">
<path d="M11.999 12.0001L35.999 12.0001L35.999 24.0001L11.999 12.0001ZM11.999 12.0001V24.0001L-12.001 24.0001L11.999 12.0001ZM11.999 12.0001L-12.001 12.0001L-12.001 0.00012207L11.999 12.0001ZM11.999 12.0001L11.999 0.00012207L35.999 0.00012207L11.999 12.0001Z" fill="white"/>
</mask>
<g mask="url(#mask1_22_1118)">
<path fill-rule="evenodd" clip-rule="evenodd" d="M8.42152 12.0001L-12.7163 1.4312L-11.2852 -1.43097L11.9992 10.2113L35.2837 -1.43097L36.7148 1.4312L15.5769 12.0001L36.7148 22.569L35.2837 25.4312L11.9992 13.789L-11.2852 25.4312L-12.7163 22.569L8.42152 12.0001Z" fill="#C8102E"/>
</g>
<path fill-rule="evenodd" clip-rule="evenodd" d="M7.99902 8.00012V0.00012207L15.999 0.00012207V8.00012L35.999 8.00012V16.0001L15.999 16.0001V24.0001H7.99902V16.0001L-12.001 16.0001V8.00012L7.99902 8.00012Z" fill="white"/>
<path fill-rule="evenodd" clip-rule="evenodd" d="M9.59902 9.60012V0.00012207L14.399 0.00012207V9.60012L35.999 9.60012V14.4001L14.399 14.4001V24.0001H9.59902V14.4001L-12.001 14.4001V9.60012L9.59902 9.60012Z" fill="#C8102E"/>
</g>
</g>
<defs>
<clipPath id="clip0_22_1118">
<rect width="24" height="24" rx="12" fill="white"/>
</clipPath>
</defs>
</svg>
