<svg width="48" height="48" viewBox="0 0 48 48" fill="none" xmlns="http://www.w3.org/2000/svg">
<path d="M44 44L4 44" stroke="#008BD0" stroke-width="1.5" stroke-linecap="round"/>
<path d="M4 22L20.2518 8.99853C22.4431 7.24548 25.5569 7.24548 27.7482 8.99853L44 22" stroke="#008BD0" stroke-width="1.5" stroke-linecap="round"/>
<path d="M31 11V7C31 6.44772 31.4477 6 32 6H37C37.5523 6 38 6.44772 38 7V17" stroke="#008BD0" stroke-width="1.5" stroke-linecap="round"/>
<path d="M8 44V19" stroke="#008BD0" stroke-width="1.5" stroke-linecap="round"/>
<path d="M40 44V19" stroke="#008BD0" stroke-width="1.5" stroke-linecap="round"/>
<path d="M30 44V34C30 31.1716 30 29.7574 29.1213 28.8787C28.2426 28 26.8284 28 24 28C21.1716 28 19.7574 28 18.8787 28.8787C18 29.7574 18 31.1716 18 34V44" stroke="#008BD0" stroke-width="1.5"/>
<path d="M28 19C28 21.2091 26.2091 23 24 23C21.7909 23 20 21.2091 20 19C20 16.7909 21.7909 15 24 15C26.2091 15 28 16.7909 28 19Z" stroke="#008BD0" stroke-width="1.5"/>
</svg>
