<svg width="22" height="22" viewBox="0 0 22 22" fill="none" xmlns="http://www.w3.org/2000/svg">
<g clip-path="url(#clip0_1_884)">
<path d="M15.5833 20.1666V18.3333" stroke="black" stroke-width="1.5" stroke-linecap="round" stroke-linejoin="round"/>
<path d="M8.25 13.75L13.75 8.25" stroke="black" stroke-width="1.5" stroke-linecap="round" stroke-linejoin="round"/>
<path d="M10.0833 5.5L10.5077 5.00866C11.3674 4.14913 12.5333 3.6663 13.7489 3.66638C14.9646 3.66647 16.1304 4.14947 16.99 5.00912C17.8495 5.86878 18.3323 7.03467 18.3322 8.25032C18.3321 9.46597 17.8492 10.6318 16.9895 11.4913L16.5 11.9167" stroke="black" stroke-width="1.5" stroke-linecap="round" stroke-linejoin="round"/>
<path d="M11.9167 16.5L11.5527 16.9895C10.6831 17.8495 9.5093 18.3318 8.28621 18.3318C7.06311 18.3318 5.88935 17.8495 5.01966 16.9895C4.59099 16.5656 4.25067 16.0609 4.0184 15.5046C3.78613 14.9483 3.66653 14.3515 3.66653 13.7486C3.66653 13.1458 3.78613 12.5489 4.0184 11.9926C4.25067 11.4363 4.59099 10.9316 5.01966 10.5077L5.5 10.0833" stroke="black" stroke-width="1.5" stroke-linecap="round" stroke-linejoin="round"/>
<path d="M18.3333 15.5833H20.1667" stroke="black" stroke-width="1.5" stroke-linecap="round" stroke-linejoin="round"/>
<path d="M1.83333 6.41669H3.66666" stroke="black" stroke-width="1.5" stroke-linecap="round" stroke-linejoin="round"/>
<path d="M6.41667 1.83331V3.66665" stroke="black" stroke-width="1.5" stroke-linecap="round" stroke-linejoin="round"/>
</g>
<defs>
<clipPath id="clip0_1_884">
<rect width="22" height="22" fill="white"/>
</clipPath>
</defs>
</svg>
