<svg width="44" height="44" viewBox="0 0 44 44" fill="none" xmlns="http://www.w3.org/2000/svg">
<g clip-path="url(#clip0_370_4710)">
<path d="M41.9938 27.4718L43.2526 26.2133C44.0448 25.4207 44.0448 24.1313 43.2526 23.3387C42.8686 22.955 42.3583 22.7436 41.8152 22.7436C41.4076 22.7436 41.0182 22.8627 40.6872 23.0846L40.422 22.1944L41.7846 20.8314C42.5772 20.0389 42.5772 18.7495 41.7846 17.9572C41.0551 17.2274 39.9051 17.1714 39.1085 17.7854L37.4938 12.3646C38.1386 11.7435 38.7563 11.1393 39.3384 10.5572C41.0159 8.8794 42.3798 7.10392 43.1791 5.55704C44.5296 2.94266 43.9643 1.54516 43.2523 0.833157C42.5406 0.12115 41.1431 -0.443822 38.5284 0.906674C36.9818 1.70563 35.206 3.06955 33.5286 4.74735C32.9465 5.32944 32.3419 5.94678 31.7212 6.59165L26.3001 4.97696C26.914 4.1807 26.858 3.03061 26.1285 2.30081C25.3359 1.50857 24.0465 1.50824 23.2543 2.30081L21.8914 3.66373L21.0008 3.39853C21.2227 3.0672 21.3419 2.67779 21.3419 2.27026C21.3419 1.72745 21.1304 1.21685 20.7467 0.833157C19.9544 0.0405836 18.6647 0.0405836 17.8725 0.833157L16.614 2.09167L10.1992 0.180904C9.97057 0.113094 9.7235 0.175533 9.55532 0.344051L7.90404 1.99533C7.62676 2.27228 7.66335 2.74594 7.97957 2.97723L24.1647 14.8242C20.5154 18.9388 17 23.0584 14.5182 26.0018L9.7574 24.1706C9.51805 24.0786 9.24715 24.136 9.06588 24.3173L7.10878 26.2744C6.85567 26.5278 6.85567 26.9384 7.10878 27.1915L16.8939 36.9766C17.1437 37.2267 17.5613 37.2267 17.8114 36.9766L19.7681 35.0199C19.9494 34.8386 20.0071 34.5674 19.9148 34.328L18.084 29.5675C21.0273 27.0858 25.1466 23.5704 29.2616 19.9207L30.5473 21.6777C30.7755 21.9896 31.2385 22.0299 31.5184 21.764C31.7517 21.5424 31.784 21.1708 31.5943 20.9117L30.2351 19.0546C32.3869 17.1341 34.5118 15.1965 36.4397 13.3706L42.551 33.8866L41.7081 34.7292L33.3087 23.2538C33.0972 22.9648 32.6913 22.902 32.4023 23.1135C32.1129 23.3253 32.0502 23.7312 32.262 24.0202L41.1085 36.1062C41.3398 36.4224 41.8135 36.459 42.0904 36.1817L43.7417 34.5304C43.9102 34.3623 43.9727 34.1148 43.9049 33.8866L41.9938 27.4718ZM24.1718 3.21826C24.4551 2.93494 24.9281 2.93494 25.2114 3.21826C25.4981 3.50494 25.4981 3.97122 25.2114 4.25791L24.9073 4.56204L23.305 4.08469L24.1718 3.21826ZM18.7899 1.75061C19.0763 1.46393 19.5429 1.46393 19.8296 1.75061C20.1162 2.03729 20.1162 2.50357 19.8296 2.79025L19.6295 2.98999L18.0276 2.51297L18.7899 1.75061ZM9.35625 2.37735L10.1992 1.53476L30.7151 7.64573C28.8893 9.57395 26.9516 11.6989 25.0308 13.8507L9.35625 2.37735ZM9.68523 25.5328L13.6347 27.0519C12.644 28.2315 11.8844 29.1442 11.4362 29.6844L8.48479 26.7329L9.68523 25.5328ZM12.3577 30.6058C14.6189 27.8777 26.5713 13.5392 34.446 5.66446C36.0083 4.10181 37.7137 2.7879 39.1239 2.05945C40.1827 1.51227 41.5993 1.01477 42.3352 1.75061C43.071 2.48645 42.5732 3.90308 42.0263 4.96185C41.2979 6.37211 39.9836 8.07709 38.421 9.63975C30.5469 17.5138 16.2081 29.4665 13.4799 31.7281L12.3577 30.6058ZM18.5529 34.4005L17.3528 35.6006L14.4014 32.6492C14.9412 32.2014 15.8543 31.4417 17.0339 30.4511L18.5529 34.4005ZM41.2955 24.2562C41.5822 23.9695 42.0485 23.9695 42.3352 24.2562C42.6218 24.5429 42.6218 25.0092 42.3352 25.2958L41.5728 26.0582L41.0954 24.4563L41.2955 24.2562ZM39.8279 18.8743C40.1142 18.5877 40.5808 18.588 40.8675 18.8743C41.1508 19.1577 41.1508 19.6307 40.8675 19.914L40.0007 20.7808L39.5234 19.1785L39.8279 18.8743Z" fill="#008BD0"/>
<path d="M38.9369 37.4433L33.4016 42.9785C33.1656 43.2148 33.1499 43.6049 33.367 43.8587C33.6098 44.142 34.0552 44.1598 34.3191 43.896L39.8543 38.3607C40.1078 38.1073 40.1078 37.6967 39.8543 37.4433C39.6012 37.1901 39.1903 37.1901 38.9369 37.4433Z" fill="#008BD0"/>
<path d="M37.086 35.5929C37.3395 35.3398 37.3395 34.9289 37.086 34.6758C36.8329 34.4224 36.422 34.4224 36.1689 34.6758L32.7092 38.1351C32.4732 38.3715 32.4575 38.7615 32.6747 39.0153C32.9174 39.2986 33.3628 39.3164 33.6267 39.0526L37.086 35.5929Z" fill="#008BD0"/>
<path d="M35.0112 32.1336C35.2647 31.8802 35.2647 31.4693 35.0112 31.2161C34.7578 30.9627 34.3472 30.9627 34.0938 31.2161L31.6721 33.6378C31.4361 33.8738 31.4203 34.2642 31.6378 34.518C31.8802 34.8014 32.3257 34.8192 32.5895 34.5553L35.0112 32.1336Z" fill="#008BD0"/>
<path d="M6.64279 4.5775C6.38934 4.32439 5.97846 4.32439 5.72534 4.5775L0.190087 10.1131C-0.0633622 10.3662 -0.0633622 10.7771 0.190087 11.0302C0.439843 11.28 0.857446 11.28 1.10754 11.0302L6.64279 5.49495C6.89591 5.2415 6.89591 4.83095 6.64279 4.5775Z" fill="#008BD0"/>
<path d="M9.41036 7.3453C9.15691 7.09185 8.74635 7.09185 8.49324 7.3453L5.03358 10.805C4.79725 11.041 4.78181 11.431 4.999 11.6848C5.24171 11.9681 5.68684 11.9859 5.95069 11.7221L9.41036 8.26275C9.6638 8.0093 9.6638 7.59841 9.41036 7.3453Z" fill="#008BD0"/>
<path d="M9.53066 12.76C9.78075 13.0098 10.198 13.0098 10.4481 12.76L12.8698 10.3383C13.1229 10.0849 13.1229 9.67433 12.8698 9.42088C12.6164 9.16777 12.2058 9.16777 11.9524 9.42088L9.53066 11.8426C9.27754 12.096 9.27754 12.5066 9.53066 12.76Z" fill="#008BD0"/>
</g>
<defs>
<clipPath id="clip0_370_4710">
<rect width="44" height="44" fill="white"/>
</clipPath>
</defs>
</svg>
