<svg width="20" height="21" viewBox="0 0 20 21" fill="none" xmlns="http://www.w3.org/2000/svg">
<path d="M10.092 20.1069C15.5239 20.1069 19.9274 15.7035 19.9274 10.2716C19.9274 4.83971 15.5239 0.436279 10.092 0.436279C4.66015 0.436279 0.256714 4.83971 0.256714 10.2716C0.256714 15.7035 4.66015 20.1069 10.092 20.1069Z" fill="black" fill-opacity="0.9"/>
<path d="M4.47295 10.0562C4.47295 10.0562 9.34487 7.98351 11.0345 7.25367C11.6823 6.96176 13.8788 6.02756 13.8788 6.02756C13.8788 6.02756 14.8927 5.61888 14.8082 6.61143C14.78 7.02014 14.5547 8.45057 14.3294 9.99781C13.9915 12.1873 13.6254 14.5811 13.6254 14.5811C13.6254 14.5811 13.5691 15.2525 13.0903 15.3693C12.6116 15.4861 11.823 14.9606 11.6823 14.8438C11.5696 14.7563 9.57015 13.4426 8.83796 12.8003C8.64082 12.6252 8.41554 12.2749 8.8661 11.8662C9.87993 10.9028 11.0909 9.70589 11.823 8.94688C12.161 8.59655 12.4989 7.77915 11.0909 8.7717C9.09142 10.2022 7.12012 11.545 7.12012 11.545C7.12012 11.545 6.66953 11.837 5.8247 11.5742C4.97983 11.3115 3.99418 10.9612 3.99418 10.9612C3.99418 10.9612 3.31835 10.5233 4.47295 10.0562Z" fill="white"/>
</svg>
