<svg width="17" height="17" viewBox="0 0 17 17" fill="none" xmlns="http://www.w3.org/2000/svg">
<path d="M4.46506 14.0199L5.08046 14.3794C6.11826 14.9847 7.29861 15.3025 8.50001 15.3C9.84492 15.3 11.1596 14.9012 12.2779 14.154C13.3961 13.4068 14.2677 12.3448 14.7824 11.1022C15.2971 9.8597 15.4317 8.49245 15.1693 7.17338C14.907 5.85431 14.2593 4.64267 13.3083 3.69167C12.3573 2.74068 11.1457 2.09304 9.82662 1.83066C8.50755 1.56828 7.1403 1.70294 5.89776 2.21762C4.65522 2.73229 3.59321 3.60387 2.84602 4.72212C2.09882 5.84037 1.70001 7.15508 1.70001 8.49999C1.69753 9.70178 2.01559 10.8825 2.62141 11.9204L2.98011 12.5358L2.42506 14.5766L4.46506 14.0199ZM0.00341195 17L1.15261 12.7772C0.395341 11.4791 -0.00249762 10.0028 1.17982e-05 8.49999C1.17982e-05 3.80545 3.80546 0 8.50001 0C13.1946 0 17 3.80545 17 8.49999C17 13.1945 13.1946 17 8.50001 17C6.99787 17.0024 5.52217 16.6049 4.22451 15.8482L0.00341195 17ZM5.43236 4.5118C5.54626 4.5033 5.66101 4.5033 5.77491 4.5084C5.82081 4.5118 5.86671 4.5169 5.91261 4.522C6.04776 4.5373 6.19651 4.61975 6.24666 4.73365C6.49996 5.30825 6.74646 5.8871 6.98446 6.46765C7.03716 6.59685 7.00571 6.7626 6.90541 6.9241C6.85441 7.00655 6.77451 7.12215 6.68186 7.24029C6.58581 7.36354 6.37926 7.58964 6.37926 7.58964C6.37926 7.58964 6.29511 7.68995 6.32741 7.8149C6.33931 7.8625 6.37841 7.93134 6.41411 7.98915L6.46426 8.0699C6.68186 8.43285 6.97426 8.80089 7.33126 9.14769C7.43326 9.24629 7.53271 9.34744 7.63981 9.44179C8.03761 9.79284 8.48811 10.0793 8.97431 10.2918L8.97856 10.2935C9.05081 10.3249 9.08735 10.3419 9.19275 10.387C9.24545 10.4091 9.29986 10.4278 9.35511 10.4431C9.4122 10.4576 9.47233 10.4549 9.52786 10.4352C9.5834 10.4156 9.63184 10.3798 9.66705 10.3326C10.2825 9.58714 10.3386 9.53869 10.3437 9.53869V9.54039C10.3864 9.50052 10.4372 9.47025 10.4926 9.45163C10.548 9.43301 10.6068 9.42647 10.665 9.43244C10.716 9.43584 10.7678 9.44519 10.8154 9.46644C11.2668 9.67299 12.0054 9.99514 12.0054 9.99514L12.5001 10.217C12.5834 10.2569 12.6591 10.3513 12.6616 10.4422C12.665 10.4992 12.6701 10.591 12.6506 10.7593C12.6234 10.9794 12.5571 11.2438 12.4908 11.3823C12.4453 11.4769 12.385 11.5635 12.3123 11.639C12.2265 11.7291 12.1326 11.811 12.0318 11.8838C11.9621 11.9365 11.9255 11.9603 11.9255 11.9603C11.8198 12.0274 11.7111 12.0898 11.6 12.1473C11.3811 12.2636 11.1394 12.3303 10.8919 12.3428C10.7347 12.3513 10.5774 12.3632 10.4193 12.3547C10.4125 12.3547 9.9365 12.2808 9.9365 12.2808C8.72802 11.9629 7.61039 11.3674 6.67251 10.5417C6.48041 10.3725 6.30191 10.1906 6.12001 10.0096C5.36521 9.25734 4.79316 8.44559 4.44551 7.6789C4.26846 7.30277 4.17287 6.89348 4.16501 6.47785C4.16181 5.96168 4.33081 5.45918 4.64526 5.04985C4.70731 4.96995 4.76596 4.88665 4.86711 4.7906C4.97421 4.6886 5.04306 4.6342 5.11701 4.5968C5.21533 4.54752 5.32259 4.51861 5.43236 4.5118Z" fill="#0A2056"/>
</svg>
