<svg width="20" height="21" viewBox="0 0 20 21" fill="none" xmlns="http://www.w3.org/2000/svg">
<path d="M18.3337 12.1668C18.3337 15.3095 18.3337 16.8809 17.3573 17.8572C16.381 18.8335 14.8097 18.8335 11.667 18.8335H8.33366C5.19096 18.8335 3.61961 18.8335 2.6433 17.8572C1.66699 16.8809 1.66699 15.3095 1.66699 12.1668C1.66699 9.02413 1.66699 7.45278 2.6433 6.47647C3.18762 5.93216 3.9169 5.69131 5.00033 5.58474M15.0003 5.58474C16.0838 5.69131 16.813 5.93216 17.3573 6.47647C17.9017 7.02078 18.1425 7.75004 18.2491 8.83344" stroke="#008BD0" stroke-width="1.5" stroke-linecap="round"/>
<path d="M8.33301 5.5H11.6663" stroke="#008BD0" stroke-width="1.5" stroke-linecap="round"/>
<path d="M9.16699 8H10.8337" stroke="#008BD0" stroke-width="1.5" stroke-linecap="round"/>
<path d="M11.6667 2.16884C13.0888 2.1809 13.8728 2.25985 14.3898 2.77686C15 3.38705 15 4.36915 15 6.33333V8.05271C15 8.43657 15 8.62851 14.9213 8.79648C14.8426 8.96446 14.6952 9.08733 14.4003 9.33308L13.8006 9.83282M8.33333 2.16884C6.9112 2.1809 6.1272 2.25985 5.61019 2.77686C5 3.38705 5 4.36915 5 6.33333V8.05271C5 8.43657 5 8.62851 5.07868 8.79648C5.15735 8.96446 5.3048 9.08733 5.59969 9.33308L6.79908 10.3326C8.32961 11.608 9.09488 12.2457 10 12.2457C10.5411 12.2457 11.0322 12.0178 11.6667 11.562" stroke="#008BD0" stroke-width="1.5" stroke-linecap="round"/>
</svg>
