<svg width="20" height="21" viewBox="0 0 20 21" fill="none" xmlns="http://www.w3.org/2000/svg">
<path d="M5.83366 3.28152C7.05938 2.57247 8.48246 2.16666 10.0003 2.16666C14.6027 2.16666 18.3337 5.89762 18.3337 10.5C18.3337 15.1024 14.6027 18.8333 10.0003 18.8333C5.39795 18.8333 1.66699 15.1024 1.66699 10.5C1.66699 8.98213 2.0728 7.55905 2.78184 6.33333" stroke="#008BD0" stroke-width="1.5" stroke-linecap="round"/>
<path d="M12.3573 16.3926C12.0478 17.1664 11.6804 17.7802 11.2759 18.199C10.8715 18.6178 10.4381 18.8333 10.0003 18.8333C9.56259 18.8333 9.12913 18.6178 8.72471 18.199C8.3203 17.7802 7.95283 17.1664 7.6433 16.3926C7.33377 15.6187 7.08824 14.7001 6.92073 13.689C6.75321 12.678 6.66699 11.5943 6.66699 10.5C6.66699 9.40565 6.75321 8.32201 6.92073 7.31097C7.08824 6.29992 7.33377 5.38126 7.6433 4.60744C7.95283 3.83362 8.3203 3.21979 8.72471 2.801C9.12913 2.38221 9.56259 2.16666 10.0003 2.16666C10.4381 2.16666 10.8715 2.38221 11.2759 2.801C11.6804 3.21979 12.0478 3.83362 12.3573 4.60744C12.6669 5.38126 12.9124 6.29992 13.0799 7.31097C13.2474 8.32201 13.3337 9.40565 13.3337 10.5C13.3337 11.5943 13.2474 12.678 13.0799 13.689" stroke="#008BD0" stroke-width="1.5" stroke-linecap="round"/>
<path d="M1.66699 10.5H8.33366M18.3337 10.5H11.667" stroke="#008BD0" stroke-width="1.5" stroke-linecap="round"/>
</svg>
