<svg width="48" height="48" viewBox="0 0 48 48" fill="none" xmlns="http://www.w3.org/2000/svg">
<g clip-path="url(#clip0_89_724)">
<path d="M24 48C37.2548 48 48 37.2548 48 24C48 10.7452 37.2548 0 24 0C10.7452 0 0 10.7452 0 24C0 37.2548 10.7452 48 24 48Z" fill="#2B31AA"/>
<path fill-rule="evenodd" clip-rule="evenodd" d="M38.999 27.6472H37.2564C37.4717 25.9489 36.1467 24.4439 34.4354 24.4439C32.7242 24.4439 31.3994 25.9489 31.6148 27.6472H17.6986C17.9139 25.949 16.5893 24.4439 14.8782 24.4439C13.1669 24.4439 11.8421 25.9489 12.0576 27.6472H10.3148C10.1161 27.6472 9.95483 27.4857 9.95483 27.2872V22.6826C9.95483 22.1741 10.3685 21.7604 10.8772 21.7604H33.8319C34.805 21.7604 35.7199 22.0137 36.515 22.4569C36.3643 22.6576 36.2473 22.814 36.2372 22.8286C35.4506 23.9426 36.2358 25.548 37.654 25.548C38.1424 25.548 38.4194 25.3725 38.9138 25.1149C39.2002 25.7822 39.3592 26.5166 39.3592 27.2875C39.3592 27.4862 39.1979 27.6473 38.9992 27.6473L38.999 27.6472ZM22.3884 23.3423C21.8181 23.3423 21.8181 24.0623 22.3884 24.0623H24.1337C24.7039 24.0623 24.7039 23.3423 24.1337 23.3423H22.3884ZM37.1207 22.848C37.7118 23.287 38.2124 23.8414 38.5895 24.4774C38.3695 24.5915 38.0734 24.74 38.0308 24.7582C37.1565 25.1306 36.2484 24.0769 36.815 23.2571C36.8228 23.2462 36.9556 23.0683 37.1207 22.8482V22.848Z" fill="white"/>
<path fill-rule="evenodd" clip-rule="evenodd" d="M31.2724 22.4805C29.577 22.4805 13.9087 22.504 13.7953 22.4684C13.5683 22.3975 13.4095 22.1007 13.6275 21.8719C16.2492 19.1197 19.2898 18.3129 22.2206 18.494V22.0746C22.2206 22.6093 22.9406 22.6099 22.9406 22.0744V18.5584C26.2342 18.9402 29.3311 20.4879 31.4627 21.8145C31.7699 22.0054 31.6312 22.4801 31.2724 22.4801V22.4805Z" fill="white"/>
<path fill-rule="evenodd" clip-rule="evenodd" d="M12.9819 22.4805C12.7832 22.4805 12.6219 22.3192 12.6219 22.1205V20.8036C12.6219 20.3296 13.3419 20.3296 13.3419 20.8036V22.1205C13.3419 22.3192 13.1806 22.4805 12.9819 22.4805ZM11.2467 22.4805C11.048 22.4805 10.8867 22.3192 10.8867 22.1205V20.8036C10.8867 20.3296 11.6067 20.3296 11.6067 20.8036V22.1205C11.6067 22.3192 11.4456 22.4805 11.2467 22.4805Z" fill="white"/>
<path fill-rule="evenodd" clip-rule="evenodd" d="M13.7359 20.8633H10.4925C9.98113 20.8633 10.1325 20.0753 10.1325 19.325C10.1325 19.1263 10.2938 18.965 10.4925 18.965H13.7359C14.2473 18.965 14.0959 19.7531 14.0959 20.5033C14.0959 20.702 13.9348 20.8633 13.7359 20.8633Z" fill="white"/>
<path fill-rule="evenodd" clip-rule="evenodd" d="M10.3147 26.4397H9.00087C8.80215 26.4397 8.64087 26.2783 8.64087 26.0797V23.3273C8.64087 23.1286 8.80215 22.9673 9.00087 22.9673H10.3145C10.5132 22.9673 10.6745 23.1286 10.6745 23.3273V26.0797C10.6749 26.2785 10.5136 26.4397 10.3147 26.4397Z" fill="white"/>
<path fill-rule="evenodd" clip-rule="evenodd" d="M34.4355 29.5307C33.1985 29.5307 32.1921 28.5245 32.1921 27.2874C32.1921 26.05 33.1983 25.044 34.4355 25.044C35.6728 25.044 36.6792 26.05 36.6792 27.2874C36.6792 28.5247 35.6724 29.5307 34.4355 29.5307Z" fill="white"/>
<path fill-rule="evenodd" clip-rule="evenodd" d="M14.8784 29.5307C13.6414 29.5307 12.635 28.5245 12.635 27.2874C12.635 26.05 13.6412 25.044 14.8784 25.044C16.1153 25.044 17.1215 26.05 17.1215 27.2874C17.1215 28.5247 16.1153 29.5307 14.8784 29.5307Z" fill="white"/>
</g>
<defs>
<clipPath id="clip0_89_724">
<rect width="48" height="48" fill="white"/>
</clipPath>
</defs>
</svg>
