<svg width="28" height="28" viewBox="0 0 28 28" fill="none" xmlns="http://www.w3.org/2000/svg">
<g clip-path="url(#clip0_6_295)">
<path d="M8.27882 1.12558L6.59619 2.80815" stroke="white" stroke-width="2" stroke-miterlimit="10" stroke-linecap="round" stroke-linejoin="round"/>
<path d="M26.8403 19.6871L25.1577 21.3697" stroke="white" stroke-width="2" stroke-miterlimit="10" stroke-linecap="round" stroke-linejoin="round"/>
<path d="M12.6978 2.8933L11.0151 4.57592" stroke="white" stroke-width="2" stroke-miterlimit="10" stroke-linecap="round" stroke-linejoin="round"/>
<path d="M25.0723 15.2677L23.3896 16.9503" stroke="white" stroke-width="2" stroke-miterlimit="10" stroke-linecap="round" stroke-linejoin="round"/>
<path d="M16.7697 6.87772L4.38604 1.92429L1.44385 4.86647L11.6842 12.5468L11.6235 12.4921" stroke="white" stroke-width="2" stroke-miterlimit="10" stroke-linecap="round" stroke-linejoin="round"/>
<path d="M15.4731 16.342L15.4185 16.2812L23.0987 26.5216L26.041 23.5794L21.0871 11.1949" stroke="white" stroke-width="2" stroke-miterlimit="10" stroke-linecap="round" stroke-linejoin="round"/>
<path d="M7.19999 17.7021C7.07268 17.659 3.16187 16.333 3.16187 16.333L1.09375 18.6337L10.2965 26.9063L12.3646 24.6056C12.3646 24.6056 10.3613 20.9155 10.2983 20.7996C11.5331 19.6885 25.2851 7.3552 25.3592 7.28115C27.0677 5.5726 27.414 3.1488 26.1326 1.86736C24.8511 0.585924 22.4273 0.932205 20.7188 2.64075C20.6448 2.71485 8.30851 16.4702 7.19999 17.7021Z" stroke="white" stroke-width="2" stroke-miterlimit="10" stroke-linecap="round" stroke-linejoin="round"/>
<path d="M3.49805 24.7344L7.12202 21.1104" stroke="white" stroke-width="2" stroke-miterlimit="10" stroke-linecap="round" stroke-linejoin="round"/>
</g>
<defs>
<clipPath id="clip0_6_295">
<rect width="28" height="28" fill="white"/>
</clipPath>
</defs>
</svg>
