<svg width="29" height="28" viewBox="0 0 29 28" fill="none" xmlns="http://www.w3.org/2000/svg">
<g clip-path="url(#clip0_6_251)">
<path d="M25.9703 21.4469V18.4186C25.9703 18.4181 25.9703 18.4177 25.9703 18.4173C25.9703 18.4173 25.9703 18.4172 25.9703 18.4172C25.9685 15.8228 23.8563 13.7125 21.2604 13.7125C18.6633 13.7125 16.5504 15.8244 16.5504 18.4203V23.1209C16.5504 24.9066 15.0967 26.3594 13.3098 26.3594C11.5234 26.3594 10.0699 24.9067 10.0699 23.1209V16.9045C14.4056 16.5423 17.9715 13.2772 17.9715 9.0732V8.58594C17.9715 7.4632 17.2163 6.51383 16.1865 6.21961V1.91352C16.1865 0.858594 15.3279 0 14.2724 0H12.8976C12.4448 0 12.0773 0.3675 12.0773 0.820312C12.0773 1.27312 12.4448 1.64062 12.8976 1.64062H14.2724C14.4228 1.64062 14.5459 1.76313 14.5459 1.91352V6.21906C13.5167 6.51328 12.7603 7.4632 12.7603 8.58594V9.0732C12.7603 11.3935 8.93784 12.6871 6.70205 10.8905C5.64461 10.0425 5.739 9.16705 5.739 8.58594C5.739 7.4632 4.98322 6.51383 3.95346 6.21961V1.91352C3.95346 1.76313 4.07596 1.64062 4.22689 1.64062H5.44916C5.90252 1.64062 6.26947 1.27312 6.26947 0.820312C6.26947 0.3675 5.90252 0 5.44916 0H4.22689C3.17143 0 2.31283 0.858594 2.31283 1.91352V6.21961C1.28307 6.51383 0.527832 7.4632 0.527832 8.58594V9.0732C0.527832 13.3069 4.12999 16.5454 8.42908 16.9045H8.4293V23.1209C8.4293 25.8112 10.6187 28 13.3098 28C16.0013 28 18.191 25.8113 18.191 23.1209V18.4203C18.191 16.729 19.5679 15.3531 21.2604 15.3531C22.9528 15.3531 24.3297 16.7291 24.3297 18.4203V21.4467C24.3296 21.4467 24.3295 21.4468 24.3295 21.4468C22.8934 21.8127 21.8275 23.117 21.8275 24.6652C21.8275 26.4961 23.3183 27.9858 25.1498 27.9858C26.9818 27.9858 28.472 26.4961 28.472 24.6652C28.472 23.1165 27.4068 21.8123 25.9703 21.4469ZM2.16846 9.0732V8.58594C2.16846 8.13416 2.5353 7.76562 2.98877 7.76562H3.27807C3.72902 7.76562 4.09838 8.13176 4.09838 8.58594V9.0732C4.09838 11.4423 6.40893 13.37 9.2494 13.37C12.0904 13.37 14.401 11.4423 14.401 9.0732V8.58594C14.401 8.13406 14.7692 7.76562 15.2213 7.76562H15.5106C15.9619 7.76562 16.3309 8.13269 16.3309 8.58594V9.0732C16.3309 10.7636 15.5756 12.3441 14.2041 13.5237C9.77746 17.3333 2.16846 14.6202 2.16846 9.0732ZM25.1498 26.3452C24.2228 26.3452 23.4681 25.5916 23.4681 24.6652C23.4681 23.7394 24.2218 22.9858 25.1478 22.9847C25.1486 22.9847 25.1493 22.9848 25.15 22.9848C25.1507 22.9848 25.1514 22.9847 25.152 22.9847C26.0785 22.9859 26.8314 23.7395 26.8314 24.6652C26.8314 25.5916 26.0773 26.3452 25.1498 26.3452Z" fill="white"/>
</g>
<defs>
<clipPath id="clip0_6_251">
<rect width="28" height="28" fill="white" transform="translate(0.5)"/>
</clipPath>
</defs>
</svg>
