<svg width="32" height="32" viewBox="0 0 32 32" fill="none" xmlns="http://www.w3.org/2000/svg">
<path d="M29.3334 29.3333L2.66675 29.3333" stroke="white" stroke-width="2" stroke-linecap="round"/>
<path d="M2.66675 14.6667L13.5013 5.99902C14.9622 4.83032 17.038 4.83032 18.4989 5.99902L29.3334 14.6667" stroke="white" stroke-width="2" stroke-linecap="round"/>
<path d="M20.6667 7.33333V4.66667C20.6667 4.29848 20.9652 4 21.3334 4H24.6667C25.0349 4 25.3334 4.29848 25.3334 4.66667V11.3333" stroke="white" stroke-width="2" stroke-linecap="round"/>
<path d="M5.33325 29.3333V12.6667" stroke="white" stroke-width="2" stroke-linecap="round"/>
<path d="M26.6667 29.3333V12.6667" stroke="white" stroke-width="2" stroke-linecap="round"/>
<path d="M20 29.3333V22.6667C20 20.7811 20 19.8382 19.4142 19.2525C18.8284 18.6667 17.8856 18.6667 16 18.6667C14.1144 18.6667 13.1716 18.6667 12.5858 19.2525C12 19.8382 12 20.7811 12 22.6667V29.3333" stroke="white" stroke-width="2"/>
<path d="M18.6666 12.6667C18.6666 14.1394 17.4727 15.3333 15.9999 15.3333C14.5272 15.3333 13.3333 14.1394 13.3333 12.6667C13.3333 11.1939 14.5272 10 15.9999 10C17.4727 10 18.6666 11.1939 18.6666 12.6667Z" stroke="white" stroke-width="2"/>
</svg>
