<svg width="80" height="80" viewBox="0 0 80 80" fill="none" xmlns="http://www.w3.org/2000/svg">
<g clip-path="url(#clip0_152_433)">
<path d="M40 80C62.0914 80 80 62.0914 80 40C80 17.9086 62.0914 0 40 0C17.9086 0 0 17.9086 0 40C0 62.0914 17.9086 80 40 80Z" fill="#FF005E"/>
<path d="M79.7547 44.4531C77.7078 62.9328 63.0719 77.6171 44.6141 79.7359L21.9656 57.0875L18.0594 50.1562C11.125 34.0625 24.0437 21.6875 24.0437 21.6875C39.8109 9.15621 57.4375 22.1437 57.4375 22.1437L79.7547 44.4531Z" fill="url(#paint0_linear_152_433)"/>
<path d="M40 15.1562C33.411 15.1563 27.0919 17.7737 22.4328 22.4328C17.7737 27.0919 15.1563 33.411 15.1562 40C15.1563 46.589 17.7737 52.9081 22.4328 57.5672C27.0919 62.2263 33.411 64.8438 40 64.8438C46.589 64.8438 52.9081 62.2263 57.5672 57.5672C62.2263 52.9081 64.8438 46.589 64.8438 40C64.8438 33.411 62.2263 27.0919 57.5672 22.4328C52.9081 17.7737 46.589 15.1563 40 15.1562ZM53.35 46.4875C53.557 46.6944 53.7212 46.9401 53.8332 47.2104C53.9452 47.4808 54.0029 47.7706 54.0029 48.0633C54.0029 48.3559 53.9452 48.6457 53.8332 48.9161C53.7212 49.1865 53.557 49.4322 53.35 49.6391L49.6391 53.35C49.4322 53.557 49.1865 53.7212 48.9161 53.8332C48.6457 53.9452 48.3559 54.0029 48.0633 54.0029C47.7706 54.0029 47.4808 53.9452 47.2104 53.8332C46.9401 53.7212 46.6944 53.557 46.4875 53.35L40 46.8625L33.5125 53.35C33.3056 53.557 33.0599 53.7212 32.7896 53.8332C32.5192 53.9452 32.2294 54.0029 31.9367 54.0029C31.6441 54.0029 31.3543 53.9452 31.0839 53.8332C30.8135 53.7212 30.5678 53.557 30.3609 53.35L26.65 49.6391C26.443 49.4322 26.2788 49.1865 26.1668 48.9161C26.0548 48.6457 25.9971 48.3559 25.9971 48.0633C25.9971 47.7706 26.0548 47.4808 26.1668 47.2104C26.2788 46.9401 26.443 46.6944 26.65 46.4875L33.1375 40L26.65 33.5125C26.443 33.3056 26.2788 33.0599 26.1668 32.7896C26.0548 32.5192 25.9971 32.2294 25.9971 31.9367C25.9971 31.6441 26.0548 31.3543 26.1668 31.0839C26.2788 30.8135 26.443 30.5678 26.65 30.3609L30.3609 26.65C30.5678 26.443 30.8135 26.2788 31.0839 26.1668C31.3543 26.0548 31.6441 25.9971 31.9367 25.9971C32.2294 25.9971 32.5192 26.0548 32.7896 26.1668C33.0599 26.2788 33.3056 26.443 33.5125 26.65L40 33.1375L46.4875 26.65C46.6944 26.443 46.9401 26.2788 47.2104 26.1668C47.4808 26.0548 47.7706 25.9971 48.0633 25.9971C48.3559 25.9971 48.6457 26.0548 48.9161 26.1668C49.1865 26.2788 49.4322 26.443 49.6391 26.65L53.35 30.3609C53.557 30.5678 53.7212 30.8135 53.8332 31.0839C53.9452 31.3543 54.0029 31.6441 54.0029 31.9367C54.0029 32.2294 53.9452 32.5192 53.8332 32.7896C53.7212 33.0599 53.557 33.3056 53.35 33.5125L46.8625 40L53.35 46.4875Z" fill="white"/>
</g>
<defs>
<linearGradient id="paint0_linear_152_433" x1="22.9125" y1="22.8234" x2="68.3297" y2="68.239" gradientUnits="userSpaceOnUse">
<stop stop-color="#9B004E"/>
<stop offset="1" stop-color="#9B004E" stop-opacity="0"/>
</linearGradient>
<clipPath id="clip0_152_433">
<rect width="80" height="80" fill="white"/>
</clipPath>
</defs>
</svg>
