<svg width="20" height="21" viewBox="0 0 20 21" fill="none" xmlns="http://www.w3.org/2000/svg">
<path d="M7.49996 4.21639C8.25956 3.97477 9.09198 3.83337 9.99996 3.83337C13.4849 3.83337 15.8567 5.91634 17.2709 7.75365C17.9792 8.67381 18.3333 9.13389 18.3333 10.5C18.3333 11.8662 17.9792 12.3263 17.2709 13.2464C15.8567 15.0837 13.4849 17.1667 9.99996 17.1667C6.51505 17.1667 4.14326 15.0837 2.72904 13.2464C2.02076 12.3263 1.66663 11.8662 1.66663 10.5C1.66663 9.13389 2.02076 8.67381 2.72904 7.75365C3.13006 7.23266 3.60807 6.69192 4.16663 6.18452" stroke="#008BD0" stroke-width="1.5" stroke-linecap="round"/>
<path d="M12.5 10.5C12.5 11.8807 11.3807 13 10 13C8.61929 13 7.5 11.8807 7.5 10.5C7.5 9.11929 8.61929 8 10 8C11.3807 8 12.5 9.11929 12.5 10.5Z" stroke="#008BD0" stroke-width="1.5"/>
</svg>
