<svg width="20" height="20" viewBox="0 0 20 20" fill="none" xmlns="http://www.w3.org/2000/svg">
<path d="M2.35635 5.5379C2.19318 5.15718 1.75228 4.98082 1.37155 5.14398C0.99083 5.30715 0.814467 5.74806 0.977633 6.12878L2.35635 5.5379ZM12.9896 11.1073L12.715 10.4094L12.9896 11.1073ZM7.63964 11.5163C7.86555 11.1691 7.76723 10.7045 7.42004 10.4786C7.07285 10.2527 6.60827 10.351 6.38236 10.6982L7.63964 11.5163ZM5.20502 12.5076C4.97911 12.8548 5.07743 13.3194 5.42462 13.5453C5.77181 13.7712 6.23639 13.6729 6.4623 13.3257L5.20502 12.5076ZM19.023 6.12878C19.1862 5.74806 19.0098 5.30715 18.6291 5.14398C18.2484 4.98082 17.8075 5.15718 17.6443 5.5379L19.023 6.12878ZM15.8337 9.27404L15.3204 8.72719V8.72719L15.8337 9.27404ZM16.5533 11.0544C16.8462 11.3473 17.3211 11.3473 17.614 11.0544C17.9069 10.7615 17.9069 10.2866 17.614 9.99371L16.5533 11.0544ZM9.25033 13.75C9.25033 14.1642 9.58611 14.5 10.0003 14.5C10.4145 14.5 10.7503 14.1642 10.7503 13.75H9.25033ZM13.5384 13.3257C13.7643 13.6729 14.2288 13.7712 14.576 13.5453C14.9232 13.3194 15.0215 12.8548 14.7956 12.5076L13.5384 13.3257ZM4.69732 9.80437C4.99022 9.51148 4.99022 9.0366 4.69732 8.74371C4.40443 8.45082 3.92956 8.45082 3.63666 8.74371L4.69732 9.80437ZM2.38666 9.99371C2.09377 10.2866 2.09377 10.7615 2.38666 11.0544C2.67956 11.3473 3.15443 11.3473 3.44732 11.0544L2.38666 9.99371ZM10.0003 10.9167C7.35977 10.9167 5.46165 9.60295 4.19575 8.23967C3.56303 7.55827 3.09878 6.87451 2.79323 6.36119C2.64088 6.10524 2.52915 5.89363 2.45663 5.74858C2.4204 5.67612 2.39404 5.62044 2.37737 5.58436C2.36904 5.56632 2.36313 5.55319 2.35964 5.54533C2.35789 5.5414 2.35674 5.53878 2.35619 5.53753C2.35592 5.5369 2.3558 5.53662 2.35582 5.53668C2.35584 5.53671 2.35589 5.53683 2.35598 5.53703C2.35602 5.53713 2.35611 5.53735 2.35614 5.5374C2.35624 5.53764 2.35635 5.5379 1.66699 5.83334C0.977633 6.12878 0.977765 6.12909 0.977906 6.12942C0.977966 6.12956 0.978118 6.12991 0.978238 6.13019C0.978478 6.13075 0.978758 6.1314 0.979077 6.13213C0.979714 6.13361 0.980508 6.13544 0.981458 6.13761C0.983359 6.14197 0.985888 6.14772 0.989048 6.15483C0.995368 6.16904 1.00422 6.18867 1.01562 6.21335C1.03842 6.26272 1.07147 6.33236 1.11499 6.4194C1.20197 6.59337 1.33113 6.83749 1.50429 7.12841C1.84978 7.70884 2.37512 8.48341 3.09656 9.26035C4.539 10.8137 6.80755 12.4167 10.0003 12.4167V10.9167ZM12.715 10.4094C11.9202 10.7222 11.0187 10.9167 10.0003 10.9167V12.4167C11.2152 12.4167 12.3027 12.1837 13.2643 11.8051L12.715 10.4094ZM6.38236 10.6982L5.20502 12.5076L6.4623 13.3257L7.63964 11.5163L6.38236 10.6982ZM18.3337 5.83334C17.6443 5.5379 17.6444 5.53775 17.6444 5.53761C17.6444 5.53757 17.6445 5.53743 17.6445 5.53735C17.6446 5.53719 17.6447 5.53706 17.6447 5.53696C17.6448 5.53675 17.6448 5.53666 17.6448 5.53667C17.6448 5.5367 17.6446 5.53716 17.6442 5.53804C17.6435 5.53981 17.6419 5.54328 17.6396 5.54839C17.6351 5.55862 17.6275 5.5754 17.6168 5.59823C17.5955 5.64391 17.5621 5.71374 17.5161 5.80378C17.4242 5.98402 17.283 6.24423 17.0904 6.55324C16.704 7.17342 16.1184 7.97819 15.3204 8.72719L16.3469 9.82089C17.2644 8.95971 17.9288 8.04413 18.3635 7.3465C18.5815 6.99661 18.7436 6.69856 18.8524 6.48526C18.9068 6.37853 18.948 6.29277 18.9764 6.23206C18.9905 6.20169 19.0014 6.17757 19.0092 6.16019C19.0131 6.15151 19.0162 6.1445 19.0185 6.13925C19.0196 6.13662 19.0206 6.13443 19.0213 6.13268C19.0217 6.13181 19.022 6.13105 19.0223 6.1304C19.0225 6.13007 19.0226 6.12977 19.0227 6.1295C19.0228 6.12937 19.0228 6.12919 19.0229 6.12912C19.0229 6.12895 19.023 6.12878 18.3337 5.83334ZM15.3204 8.72719C14.6135 9.39065 13.7484 10.0026 12.715 10.4094L13.2643 11.8051C14.51 11.3148 15.5324 10.5854 16.3469 9.82089L15.3204 8.72719ZM15.3033 9.80437L16.5533 11.0544L17.614 9.99371L16.364 8.74371L15.3033 9.80437ZM9.25033 11.6667V13.75H10.7503V11.6667H9.25033ZM12.361 11.5163L13.5384 13.3257L14.7956 12.5076L13.6183 10.6982L12.361 11.5163ZM3.63666 8.74371L2.38666 9.99371L3.44732 11.0544L4.69732 9.80437L3.63666 8.74371Z" fill="black"/>
</svg>
