<svg width="20" height="21" viewBox="0 0 20 21" fill="none" xmlns="http://www.w3.org/2000/svg">
<path d="M5.83317 3.28152C7.05889 2.57247 8.48197 2.16666 9.99984 2.16666C14.6022 2.16666 18.3332 5.89762 18.3332 10.5C18.3332 15.1024 14.6022 18.8333 9.99984 18.8333C5.39746 18.8333 1.6665 15.1024 1.6665 10.5C1.6665 8.98213 2.07231 7.55905 2.78136 6.33333" stroke="black" stroke-opacity="0.8" stroke-width="1.5" stroke-linecap="round"/>
<path d="M12.3569 16.3926C12.0473 17.1664 11.6799 17.7802 11.2754 18.199C10.871 18.6178 10.4376 18.8333 9.99984 18.8333C9.5621 18.8333 9.12864 18.6178 8.72423 18.199C8.31981 17.7802 7.95234 17.1664 7.64281 16.3926C7.33329 15.6187 7.08775 14.7001 6.92024 13.689C6.75272 12.678 6.6665 11.5943 6.6665 10.5C6.6665 9.40565 6.75272 8.32201 6.92024 7.31097C7.08775 6.29992 7.33329 5.38126 7.64281 4.60744C7.95234 3.83362 8.31981 3.21979 8.72423 2.801C9.12864 2.38221 9.5621 2.16666 9.99984 2.16666C10.4376 2.16666 10.871 2.38221 11.2754 2.801C11.6799 3.21979 12.0473 3.83362 12.3569 4.60744C12.6664 5.38126 12.9119 6.29992 13.0794 7.31097C13.247 8.32201 13.3332 9.40565 13.3332 10.5C13.3332 11.5943 13.247 12.678 13.0794 13.689" stroke="black" stroke-opacity="0.8" stroke-width="1.5" stroke-linecap="round"/>
<path d="M1.6665 10.5H8.33317M18.3332 10.5H11.6665" stroke="black" stroke-opacity="0.8" stroke-width="1.5" stroke-linecap="round"/>
</svg>
