<svg width="28" height="28" viewBox="0 0 28 28" fill="none" xmlns="http://www.w3.org/2000/svg">
<path d="M25.6663 25.6667L2.33301 25.6667" stroke="#0A2056" stroke-width="2" stroke-linecap="round"/>
<path d="M2.33301 12.8333L11.8132 5.24914C13.0915 4.22652 14.9078 4.22652 16.1861 5.24914L25.6663 12.8333" stroke="#0A2056" stroke-width="2" stroke-linecap="round"/>
<path d="M18.083 6.41667V4.08333C18.083 3.76117 18.3442 3.5 18.6663 3.5H21.583C21.9052 3.5 22.1663 3.76117 22.1663 4.08333V9.91667" stroke="#0A2056" stroke-width="2" stroke-linecap="round"/>
<path d="M4.66699 25.6667V11.0833" stroke="#0A2056" stroke-width="2" stroke-linecap="round"/>
<path d="M23.333 25.6667V11.0833" stroke="#0A2056" stroke-width="2" stroke-linecap="round"/>
<path d="M17.5 25.6667V19.8333C17.5 18.1834 17.5 17.3585 16.9874 16.8459C16.4749 16.3333 15.6499 16.3333 14 16.3333C12.3501 16.3333 11.5251 16.3333 11.0126 16.8459C10.5 17.3585 10.5 18.1834 10.5 19.8333V25.6667" stroke="#0A2056" stroke-width="2"/>
<path d="M16.3337 11.0833C16.3337 12.372 15.289 13.4167 14.0003 13.4167C12.7117 13.4167 11.667 12.372 11.667 11.0833C11.667 9.79467 12.7117 8.75 14.0003 8.75C15.289 8.75 16.3337 9.79467 16.3337 11.0833Z" stroke="#0A2056" stroke-width="2"/>
</svg>
