<svg width="20" height="21" viewBox="0 0 20 21" fill="none" xmlns="http://www.w3.org/2000/svg">
<path d="M7.50016 13.8333C7.50016 14.2936 7.12707 14.6667 6.66683 14.6667C6.20659 14.6667 5.8335 14.2936 5.8335 13.8333C5.8335 13.3731 6.20659 13 6.66683 13C7.12707 13 7.50016 13.3731 7.50016 13.8333Z" fill="black" fill-opacity="0.8"/>
<path d="M10.8335 13.8333C10.8335 14.2936 10.4604 14.6667 10.0002 14.6667C9.53993 14.6667 9.16683 14.2936 9.16683 13.8333C9.16683 13.3731 9.53993 13 10.0002 13C10.4604 13 10.8335 13.3731 10.8335 13.8333Z" fill="black" fill-opacity="0.8"/>
<path d="M14.1668 13.8333C14.1668 14.2936 13.7937 14.6667 13.3335 14.6667C12.8733 14.6667 12.5002 14.2936 12.5002 13.8333C12.5002 13.3731 12.8733 13 13.3335 13C13.7937 13 14.1668 13.3731 14.1668 13.8333Z" fill="black" fill-opacity="0.8"/>
<path d="M5 8.83333V7.16666C5 6.88274 5.02367 6.60434 5.06913 6.33333M15 8.83333V7.16666C15 4.40524 12.7614 2.16666 10 2.16666C8.50663 2.16666 7.16618 2.82136 6.25 3.85938" stroke="black" stroke-opacity="0.8" stroke-width="1.5" stroke-linecap="round"/>
<path d="M9.1665 18.8333H6.6665C4.30948 18.8333 3.13097 18.8333 2.39874 18.1011C1.6665 17.3689 1.6665 16.1904 1.6665 13.8333C1.6665 11.4763 1.6665 10.2978 2.39874 9.56557C3.13097 8.83334 4.30948 8.83334 6.6665 8.83334H13.3332C15.6902 8.83334 16.8687 8.83334 17.6009 9.56557C18.3332 10.2978 18.3332 11.4763 18.3332 13.8333C18.3332 16.1904 18.3332 17.3689 17.6009 18.1011C16.8687 18.8333 15.6902 18.8333 13.3332 18.8333H12.4998" stroke="black" stroke-opacity="0.8" stroke-width="1.5" stroke-linecap="round"/>
</svg>
