<svg width="20" height="21" viewBox="0 0 20 21" fill="none" xmlns="http://www.w3.org/2000/svg">
<path d="M7.49967 13.8333C7.49967 14.2936 7.12658 14.6667 6.66634 14.6667C6.2061 14.6667 5.83301 14.2936 5.83301 13.8333C5.83301 13.3731 6.2061 13 6.66634 13C7.12658 13 7.49967 13.3731 7.49967 13.8333Z" fill="#008BD0"/>
<path d="M10.833 13.8333C10.833 14.2936 10.4599 14.6667 9.99967 14.6667C9.53944 14.6667 9.16634 14.2936 9.16634 13.8333C9.16634 13.3731 9.53944 13 9.99967 13C10.4599 13 10.833 13.3731 10.833 13.8333Z" fill="#008BD0"/>
<path d="M14.1663 13.8333C14.1663 14.2936 13.7932 14.6667 13.333 14.6667C12.8728 14.6667 12.4997 14.2936 12.4997 13.8333C12.4997 13.3731 12.8728 13 13.333 13C13.7932 13 14.1663 13.3731 14.1663 13.8333Z" fill="#008BD0"/>
<path d="M5 8.83333V7.16666C5 6.88274 5.02367 6.60434 5.06913 6.33333M15 8.83333V7.16666C15 4.40524 12.7614 2.16666 10 2.16666C8.50663 2.16666 7.16618 2.82136 6.25 3.85938" stroke="#008BD0" stroke-width="1.5" stroke-linecap="round"/>
<path d="M9.16699 18.8333H6.66699C4.30997 18.8333 3.13146 18.8333 2.39923 18.1011C1.66699 17.3689 1.66699 16.1904 1.66699 13.8333C1.66699 11.4763 1.66699 10.2978 2.39923 9.56557C3.13146 8.83334 4.30997 8.83334 6.66699 8.83334H13.3337C15.6907 8.83334 16.8692 8.83334 17.6014 9.56557C18.3337 10.2978 18.3337 11.4763 18.3337 13.8333C18.3337 16.1904 18.3337 17.3689 17.6014 18.1011C16.8692 18.8333 15.6907 18.8333 13.3337 18.8333H12.5003" stroke="#008BD0" stroke-width="1.5" stroke-linecap="round"/>
</svg>
