<svg width="28" height="28" viewBox="0 0 28 28" fill="none" xmlns="http://www.w3.org/2000/svg">
<path d="M25.6871 12.8297C25.2863 12.2976 23.7971 11.9312 23.1671 10.9736C22.5371 10.016 22.0214 7.94227 20.418 7.14547C18.8145 6.34867 15.7499 6.125 13.9999 6.125C12.2499 6.125 9.18736 6.34375 7.58174 7.14383C5.97611 7.94391 5.4626 10.016 4.8326 10.972C4.2026 11.9279 2.71346 12.2976 2.3126 12.8297C1.91174 13.3618 1.62955 16.7256 1.80127 18.375C1.97299 20.0244 2.29346 21 2.29346 21H6.99658C7.76658 21 8.01705 20.7107 9.59205 20.5625C11.3202 20.3984 13.0155 20.3438 13.9999 20.3438C14.9842 20.3438 16.7342 20.3984 18.4613 20.5625C20.0363 20.7118 20.2949 21 21.0567 21H25.7052C25.7052 21 26.0256 20.0244 26.1974 18.375C26.3691 16.7256 26.0858 13.3618 25.6871 12.8297ZM21.8749 21H24.9374V21.875H21.8749V21ZM3.06236 21H6.12486V21.875H3.06236V21Z" stroke="#0A2056" stroke-width="2" stroke-linecap="round" stroke-linejoin="round"/>
<path d="M19.9321 16.9072C19.6089 16.5337 18.5556 16.222 17.1611 16.0131C15.7666 15.8042 15.258 15.75 14.0111 15.75C12.7642 15.75 12.1971 15.8397 10.8605 16.0131C9.52397 16.1864 8.52046 16.4949 8.09007 16.9072C7.44421 17.5328 8.3903 18.235 9.13296 18.3203C9.85265 18.4024 11.2915 18.3723 14.0171 18.3723C16.7427 18.3723 18.1816 18.4024 18.9012 18.3203C19.6428 18.2301 20.5211 17.5766 19.9321 16.9072ZM23.6016 13.2918C23.5986 13.2484 23.5796 13.2076 23.5483 13.1773C23.517 13.147 23.4756 13.1294 23.4321 13.1277C22.7862 13.1048 22.1305 13.1507 20.9673 13.4936C20.3739 13.6669 19.8166 13.9459 19.3223 14.3172C19.1976 14.4145 19.2419 14.6776 19.3983 14.7055C20.3571 14.818 21.3216 14.8746 22.2869 14.875C22.8661 14.875 23.4638 14.7109 23.5748 14.1947C23.6314 13.897 23.6405 13.5923 23.6016 13.2918ZM4.39866 13.2918C4.40173 13.2484 4.42073 13.2076 4.45202 13.1773C4.48331 13.147 4.52468 13.1294 4.56819 13.1277C5.21405 13.1048 5.86976 13.1507 7.03296 13.4936C7.6264 13.6669 8.18367 13.9459 8.67796 14.3172C8.80265 14.4145 8.75835 14.6776 8.60194 14.7055C7.64318 14.818 6.67869 14.8746 5.71335 14.875C5.13421 14.875 4.53647 14.7109 4.42546 14.1947C4.36885 13.897 4.35981 13.5923 4.39866 13.2918Z" fill="#0A2056"/>
<path d="M23.625 10.5H24.5M3.5 10.5H4.375M4.26562 11.5391C4.26562 11.5391 6.80039 10.8828 14 10.8828C21.1996 10.8828 23.7344 11.5391 23.7344 11.5391" stroke="#0A2056" stroke-width="2" stroke-linecap="round" stroke-linejoin="round"/>
</svg>
