<svg width="20" height="21" viewBox="0 0 20 21" fill="none" xmlns="http://www.w3.org/2000/svg">
<path d="M18.3332 12.1668C18.3332 15.3095 18.3332 16.8809 17.3569 17.8572C16.3805 18.8335 14.8092 18.8335 11.6665 18.8335H8.33317C5.19047 18.8335 3.61913 18.8335 2.64281 17.8572C1.6665 16.8809 1.6665 15.3095 1.6665 12.1668C1.6665 9.02413 1.6665 7.45278 2.64281 6.47647C3.18713 5.93216 3.91641 5.69131 4.99984 5.58474M14.9998 5.58474C16.0833 5.69131 16.8125 5.93216 17.3569 6.47647C17.9012 7.02078 18.142 7.75004 18.2486 8.83344" stroke="black" stroke-opacity="0.8" stroke-width="1.5" stroke-linecap="round"/>
<path d="M8.3335 5.5H11.6668" stroke="black" stroke-opacity="0.8" stroke-width="1.5" stroke-linecap="round"/>
<path d="M9.1665 8H10.8332" stroke="black" stroke-opacity="0.8" stroke-width="1.5" stroke-linecap="round"/>
<path d="M11.6667 2.16884C13.0888 2.1809 13.8728 2.25985 14.3898 2.77686C15 3.38705 15 4.36915 15 6.33333V8.05271C15 8.43657 15 8.62851 14.9213 8.79648C14.8426 8.96446 14.6952 9.08733 14.4003 9.33308L13.8006 9.83282M8.33333 2.16884C6.9112 2.1809 6.1272 2.25985 5.61019 2.77686C5 3.38705 5 4.36915 5 6.33333V8.05271C5 8.43657 5 8.62851 5.07868 8.79648C5.15735 8.96446 5.3048 9.08733 5.59969 9.33308L6.79908 10.3326C8.32961 11.608 9.09488 12.2457 10 12.2457C10.5411 12.2457 11.0322 12.0178 11.6667 11.562" stroke="black" stroke-opacity="0.8" stroke-width="1.5" stroke-linecap="round"/>
</svg>
