<svg width="20" height="21" viewBox="0 0 20 21" fill="none" xmlns="http://www.w3.org/2000/svg">
<path d="M12.5 10.5001L1.66667 10.5001M1.66667 10.5001L4.58333 8.00006M1.66667 10.5001L4.58333 13.0001" stroke="black" stroke-opacity="0.8" stroke-width="1.5" stroke-linecap="round" stroke-linejoin="round"/>
<path d="M7.50146 6.33338C7.51155 4.52086 7.59193 3.53927 8.23225 2.89895C8.96448 2.16672 10.143 2.16672 12.5 2.16672L13.3334 2.16672C15.6904 2.16672 16.8689 2.16672 17.6011 2.89895C18.3334 3.63118 18.3333 4.80969 18.3333 7.16672L18.3333 13.8334C18.3333 16.1904 18.3334 17.3689 17.6011 18.1012C16.9608 18.7415 15.9791 18.8219 14.1665 18.8319M7.50146 14.6667C7.51155 16.4792 7.59193 17.4608 8.23225 18.1012C8.76664 18.6355 9.53874 18.7799 10.8332 18.8189" stroke="black" stroke-opacity="0.8" stroke-width="1.5" stroke-linecap="round"/>
</svg>
