<svg width="26" height="26" viewBox="0 0 26 26" fill="none" xmlns="http://www.w3.org/2000/svg">
<g clip-path="url(#clip0_137_1058)">
<path d="M23.6515 19.9149V17.103C23.6515 17.1026 23.6515 17.1021 23.6515 17.1018C23.6515 17.1018 23.6515 17.1017 23.6515 17.1017C23.6499 14.6926 21.6885 12.733 19.278 12.733C16.8664 12.733 14.9045 14.6941 14.9045 17.1046V21.4694C14.9045 23.1276 13.5546 24.4766 11.8954 24.4766C10.2365 24.4766 8.88688 23.1276 8.88688 21.4694V15.697C12.9128 15.3607 16.2241 12.3288 16.2241 8.42512V7.97266C16.2241 6.93012 15.5228 6.04855 14.5666 5.77535V1.77684C14.5666 0.797266 13.7693 0 12.7892 0H11.5126C11.0921 0 10.7509 0.34125 10.7509 0.761719C10.7509 1.18219 11.0921 1.52344 11.5126 1.52344H12.7892C12.9289 1.52344 13.0431 1.63719 13.0431 1.77684V5.77484C12.0874 6.04805 11.3851 6.93012 11.3851 7.97266V8.42512C11.3851 10.5797 7.83566 11.7808 5.75957 10.1126C4.77766 9.32516 4.86531 8.51226 4.86531 7.97266C4.86531 6.93012 4.16352 6.04855 3.2073 5.77535V1.77684C3.2073 1.63719 3.32105 1.52344 3.46121 1.52344H4.59617C5.01715 1.52344 5.35789 1.18219 5.35789 0.761719C5.35789 0.34125 5.01715 0 4.59617 0H3.46121C2.48113 0 1.68387 0.797266 1.68387 1.77684V5.77535C0.727656 6.04855 0.0263672 6.93012 0.0263672 7.97266V8.42512C0.0263672 12.3564 3.37123 15.3636 7.36324 15.697H7.36345V21.4694C7.36345 23.9676 9.39647 26 11.8954 26C14.3946 26 16.4279 23.9676 16.4279 21.4694V17.1046C16.4279 15.5341 17.7065 14.2564 19.278 14.2564C20.8495 14.2564 22.1281 15.5341 22.1281 17.1046V19.9148C22.128 19.9148 22.1279 19.9149 22.1279 19.9149C20.7944 20.2546 19.8046 21.4657 19.8046 22.9034C19.8046 24.6035 21.1889 25.9868 22.8896 25.9868C24.5908 25.9868 25.9746 24.6035 25.9746 22.9034C25.9746 21.4653 24.9855 20.2543 23.6515 19.9149ZM1.5498 8.42512V7.97266C1.5498 7.55315 1.89045 7.21094 2.31152 7.21094H2.58016C2.9989 7.21094 3.34188 7.55092 3.34188 7.97266V8.42512C3.34188 10.625 5.48738 12.415 8.12496 12.415C10.763 12.415 12.9086 10.625 12.9086 8.42512V7.97266C12.9086 7.55305 13.2505 7.21094 13.6703 7.21094H13.9389C14.358 7.21094 14.7006 7.55178 14.7006 7.97266V8.42512C14.7006 9.99477 13.9993 11.4623 12.7257 12.5577C8.6153 16.0952 1.5498 13.5759 1.5498 8.42512ZM22.8896 24.4634C22.0289 24.4634 21.3281 23.7636 21.3281 22.9034C21.3281 22.0437 22.0279 21.3439 22.8878 21.3429C22.8885 21.3429 22.8892 21.343 22.8898 21.343C22.8905 21.343 22.8911 21.3429 22.8917 21.3429C23.752 21.3441 24.4511 22.0438 24.4511 22.9034C24.4511 23.7636 23.7509 24.4634 22.8896 24.4634Z" fill="#008BD0"/>
</g>
<defs>
<clipPath id="clip0_137_1058">
<rect width="26" height="26" fill="white"/>
</clipPath>
</defs>
</svg>
