<svg width="48" height="48" viewBox="0 0 48 48" fill="none" xmlns="http://www.w3.org/2000/svg">
<g clip-path="url(#clip0_87_668)">
<path fill-rule="evenodd" clip-rule="evenodd" d="M24.0254 0.0956116C37.2166 0.0956116 48.002 10.8809 48.002 24.0722C48.002 37.2634 37.2167 48.0488 24.0254 48.0488C10.8342 48.0488 0.0488281 37.2634 0.0488281 24.0722C0.0488281 10.881 10.8342 0.0956116 24.0254 0.0956116Z" fill="#1E88E5"/>
<path fill-rule="evenodd" clip-rule="evenodd" d="M16.334 10.9599V37.1843H36.4748V10.9599H16.334ZM18.1174 13.5558H34.6913V15.1062H18.1174V13.5558ZM18.1174 27.8446C18.1174 27.6853 18.2465 27.5564 18.4056 27.5564H22.4152C22.5743 27.5564 22.7034 27.6853 22.7034 27.8446C22.7034 28.0039 22.5743 28.1328 22.4152 28.1328H18.4056C18.2465 28.1328 18.1174 28.0037 18.1174 27.8446ZM26.0399 34.0132C25.971 34.1566 25.7989 34.2169 25.6554 34.1479C25.6291 34.1352 25.6027 34.1221 25.576 34.1088C25.4542 34.0477 25.3277 33.9847 25.2544 34.0039C25.2125 34.0146 25.1517 34.0618 25.0927 34.1073C24.9732 34.1993 24.8243 34.3139 24.6137 34.3263C24.2879 34.3458 24.004 34.1087 23.8546 33.6931C23.8446 33.6651 23.8348 33.6369 23.825 33.6082C23.774 33.4605 23.7214 33.3077 23.6393 33.261C23.5628 33.2176 23.4127 33.2613 23.2975 33.3607C23.2104 33.4358 23.1329 33.5348 23.051 33.6398C22.9858 33.7229 22.9185 33.8092 22.8399 33.8918C22.2612 34.5018 21.2724 34.6302 20.5494 34.2171C20.0754 34.5097 19.5387 34.6703 19.0123 34.6703C18.9029 34.6703 18.7938 34.6633 18.6857 34.6492C18.5279 34.6285 18.4168 34.4839 18.4374 34.3259C18.4581 34.168 18.6029 34.0569 18.7608 34.0777C19.1847 34.1333 19.6448 34.0394 20.0611 33.828C19.833 33.5956 19.6409 33.3204 19.5047 33.0273C19.3807 32.7603 19.3205 32.4746 19.3308 32.2018C19.3429 31.8786 19.4549 31.5906 19.6547 31.3683C19.8807 31.117 20.2092 30.9768 20.5338 30.9922C21.0926 31.0195 21.6108 31.4185 21.7936 31.9624C21.8942 32.2616 21.8714 32.6109 21.7308 32.9204C21.6179 33.169 21.4482 33.4174 21.2261 33.6584C21.1753 33.7136 21.1227 33.7668 21.0685 33.818C21.5314 33.9651 22.0868 33.8479 22.4219 33.4948C22.4815 33.432 22.5375 33.3603 22.5969 33.2843C22.6925 33.1622 22.7913 33.0357 22.9213 32.9237C23.1767 32.7034 23.5861 32.5671 23.9244 32.7597C24.1957 32.914 24.2923 33.1945 24.37 33.4199C24.3791 33.4461 24.3879 33.4721 24.3971 33.4978C24.4582 33.6676 24.5456 33.7504 24.579 33.7504H24.58C24.6133 33.7484 24.684 33.694 24.7409 33.6502C24.8356 33.5772 24.9536 33.4861 25.1088 33.4458C25.3915 33.3722 25.6367 33.4944 25.8337 33.5928C25.8576 33.6049 25.8817 33.6167 25.9052 33.6283C26.0486 33.6975 26.109 33.8698 26.0399 34.0132ZM31.4948 35.1337C30.225 35.1337 29.1917 34.1006 29.1917 32.8306C29.1917 31.5608 30.2248 30.528 31.4948 30.528C32.7645 30.528 33.7978 31.5609 33.7978 32.8306C33.7978 34.1004 32.7645 35.1337 31.4948 35.1337ZM34.4032 28.1328H24.127C23.9676 28.1328 23.8388 28.0039 23.8388 27.8446C23.8388 27.6853 23.9676 27.5564 24.127 27.5564H34.4032C34.5625 27.5564 34.6913 27.6853 34.6913 27.8446C34.6913 28.0037 34.5623 28.1328 34.4032 28.1328ZM34.4032 26.1415H18.4056C18.2465 26.1415 18.1174 26.0126 18.1174 25.8533C18.1174 25.6939 18.2465 25.5651 18.4056 25.5651H34.4032C34.5625 25.5651 34.6913 25.6939 34.6913 25.8533C34.6913 26.0125 34.5623 26.1415 34.4032 26.1415ZM18.1174 23.8619C18.1174 23.7028 18.2465 23.5738 18.4056 23.5738H28.6818C28.8411 23.5738 28.97 23.7028 28.97 23.8619C28.97 24.0213 28.8411 24.1501 28.6818 24.1501H18.4056C18.2465 24.1501 18.1174 24.0211 18.1174 23.8619ZM34.4032 24.1501H30.3937C30.2345 24.1501 30.1055 24.0213 30.1055 23.8619C30.1055 23.7028 30.2344 23.5738 30.3937 23.5738H34.4032C34.5625 23.5738 34.6913 23.7028 34.6913 23.8619C34.6913 24.0211 34.5623 24.1501 34.4032 24.1501ZM34.4032 22.1589H18.4056C18.2465 22.1589 18.1174 22.0299 18.1174 21.8707C18.1174 21.7114 18.2465 21.5825 18.4056 21.5825H34.4032C34.5625 21.5825 34.6913 21.7114 34.6913 21.8707C34.6913 22.0299 34.5623 22.1589 34.4032 22.1589ZM18.1174 19.8795C18.1174 19.7202 18.2465 19.5913 18.4056 19.5913H21.6889C21.8482 19.5913 21.9771 19.7202 21.9771 19.8795C21.9771 20.0386 21.8482 20.1677 21.6889 20.1677H18.4056C18.2465 20.1677 18.1174 20.0386 18.1174 19.8795ZM34.4032 20.1677H23.5045C23.3453 20.1677 23.2163 20.0386 23.2163 19.8795C23.2163 19.7202 23.3452 19.5913 23.5045 19.5913H34.4032C34.5625 19.5913 34.6913 19.7202 34.6913 19.8795C34.6913 20.0386 34.5623 20.1677 34.4032 20.1677ZM34.4032 18.1763H18.4056C18.2465 18.1763 18.1174 18.0474 18.1174 17.8881C18.1174 17.7288 18.2465 17.5999 18.4056 17.5999H34.4032C34.5625 17.5999 34.6913 17.7288 34.6913 17.8881C34.6913 18.0473 34.5623 18.1763 34.4032 18.1763Z" fill="#FFFFFE"/>
<path fill-rule="evenodd" clip-rule="evenodd" d="M21.2469 32.1463C21.1413 31.832 20.8223 31.5834 20.5053 31.5681C20.498 31.5678 20.4911 31.5676 20.4837 31.5676C20.3391 31.5676 20.1873 31.6377 20.0826 31.754C19.8226 32.0431 19.8902 32.4902 20.0271 32.7851C20.1519 33.0541 20.3356 33.3038 20.5538 33.5038C20.6413 33.4313 20.7243 33.3526 20.8017 33.2684C20.9822 33.0724 21.1179 32.8754 21.2057 32.6824C21.2866 32.5042 21.3016 32.3089 21.2469 32.1463Z" fill="#FFFFFE"/>
<path fill-rule="evenodd" clip-rule="evenodd" d="M32.1901 32.0252L31.0485 33.1668L30.6498 32.7682C30.5373 32.6557 30.3548 32.6557 30.2423 32.7682C30.1298 32.8807 30.1298 33.0632 30.2423 33.1757L30.8447 33.778C30.8986 33.832 30.972 33.8625 31.0486 33.8625C31.1249 33.8625 31.1983 33.8321 31.2523 33.778L32.5976 32.4323C32.7101 32.32 32.7101 32.1374 32.5976 32.025C32.4852 31.9127 32.3024 31.9127 32.1901 32.0252Z" fill="#FFFFFE"/>
<path fill-rule="evenodd" clip-rule="evenodd" d="M13.7853 19.1379L13.7845 14.0088C13.7843 13.4151 13.3015 12.9325 12.708 12.9325C12.708 12.9325 12.7079 12.9325 12.7077 12.9325H12.6522C12.3647 12.9325 12.0945 13.0445 11.8911 13.2478C11.6878 13.4511 11.5759 13.7218 11.5759 14.0091L11.577 19.1382L13.7853 19.1379Z" fill="#FFFFFE"/>
<path fill-rule="evenodd" clip-rule="evenodd" d="M11.5779 19.7143H13.7867V28.6743H11.5779V19.7143Z" fill="#FFFFFE"/>
<path fill-rule="evenodd" clip-rule="evenodd" d="M11.5789 29.2507H13.7876V30.7764H11.5789V29.2507Z" fill="#FFFFFE"/>
<path fill-rule="evenodd" clip-rule="evenodd" d="M12.2725 31.353L11.7405 32.4327L12.6841 34.7389L13.6269 32.4324L13.0944 31.3528L12.2725 31.353Z" fill="#FFFFFE"/>
</g>
<defs>
<clipPath id="clip0_87_668">
<rect width="48" height="48" fill="white"/>
</clipPath>
</defs>
</svg>
