<svg width="20" height="21" viewBox="0 0 20 21" fill="none" xmlns="http://www.w3.org/2000/svg">
<path d="M18.3327 10.5C18.3327 11.5943 18.1171 12.6779 17.6983 13.689C17.2796 14.7 16.6657 15.6187 15.8919 16.3925C15.1181 17.1663 14.1994 17.7802 13.1884 18.199C12.1773 18.6177 11.0937 18.8333 9.99935 18.8333C8.905 18.8333 7.82137 18.6177 6.81032 18.199C5.79927 17.7802 4.88061 17.1663 4.10679 16.3925C3.33297 15.6187 2.71914 14.7 2.30035 13.689C1.88156 12.6779 1.66602 11.5943 1.66602 10.5C1.66602 9.40561 1.88156 8.32198 2.30035 7.31093C2.71914 6.29988 3.33297 5.38122 4.10679 4.6074C4.88061 3.83358 5.79927 3.21975 6.81032 2.80096C7.82137 2.38217 8.905 2.16663 9.99935 2.16663C11.0937 2.16663 12.1773 2.38217 13.1884 2.80096C14.1994 3.21975 15.1181 3.83358 15.8919 4.6074C16.6657 5.38123 17.2796 6.29989 17.6983 7.31093C18.1171 8.32198 18.3327 9.40561 18.3327 10.5L18.3327 10.5Z" stroke="black" stroke-opacity="0.8" stroke-width="1.5"/>
<path d="M13.3327 10.5C13.3327 11.5943 13.2465 12.6779 13.0789 13.689C12.9114 14.7 12.6659 15.6187 12.3564 16.3925C12.0468 17.1663 11.6794 17.7802 11.275 18.199C10.8705 18.6177 10.4371 18.8333 9.99935 18.8333C9.56161 18.8333 9.12816 18.6177 8.72374 18.199C8.31932 17.7802 7.95185 17.1663 7.64233 16.3925C7.3328 15.6187 7.08727 14.7 6.91975 13.689C6.75223 12.6779 6.66602 11.5943 6.66602 10.5C6.66602 9.40561 6.75223 8.32198 6.91975 7.31093C7.08727 6.29988 7.3328 5.38122 7.64233 4.6074C7.95186 3.83358 8.31932 3.21975 8.72374 2.80096C9.12816 2.38217 9.56161 2.16663 9.99935 2.16663C10.4371 2.16663 10.8705 2.38217 11.275 2.80096C11.6794 3.21975 12.0468 3.83358 12.3564 4.6074C12.6659 5.38123 12.9114 6.29989 13.0789 7.31093C13.2465 8.32198 13.3327 9.40561 13.3327 10.5L13.3327 10.5Z" stroke="black" stroke-opacity="0.8" stroke-width="1.5"/>
<path d="M1.66602 10.5H18.3327" stroke="black" stroke-opacity="0.8" stroke-width="1.5" stroke-linecap="round"/>
</svg>
