<svg width="20" height="21" viewBox="0 0 20 21" fill="none" xmlns="http://www.w3.org/2000/svg">
<path d="M3.3335 18.8333H6.66683M16.6668 18.8333H10.0002" stroke="#008BD0" stroke-width="1.5" stroke-linecap="round"/>
<path d="M11.5735 3.55243L12.1915 2.93451C13.2153 1.91071 14.8752 1.91071 15.899 2.93451C16.9228 3.95831 16.9228 5.61822 15.899 6.64203L15.2811 7.25995M11.5735 3.55243C11.5735 3.55243 11.6508 4.86551 12.8094 6.02411C13.968 7.18271 15.2811 7.25995 15.2811 7.25995M11.5735 3.55243L5.89271 9.23326C5.50794 9.61803 5.31555 9.81042 5.15009 10.0225C4.95492 10.2728 4.78759 10.5435 4.65106 10.83C4.53532 11.0729 4.44928 11.331 4.2772 11.8472L3.54803 14.0347M15.2811 7.25995L12.4406 10.1004M9.60023 12.9408C9.21546 13.3255 9.02307 13.5179 8.81094 13.6834C8.56071 13.8786 8.28996 14.0459 8.00348 14.1824C7.76063 14.2982 7.50251 14.3842 6.98628 14.5563L4.79878 15.2855M4.79878 15.2855L4.26406 15.4637C4.01002 15.5484 3.72993 15.4823 3.54058 15.2929C3.35123 15.1036 3.28511 14.8235 3.3698 14.5694L3.54803 14.0347M4.79878 15.2855L3.54803 14.0347" stroke="#008BD0" stroke-width="1.5" stroke-linecap="round"/>
</svg>
