<svg width="20" height="20" viewBox="0 0 20 20" fill="none" xmlns="http://www.w3.org/2000/svg">
<g clip-path="url(#clip0_318_4080)">
<path d="M12.5 10L1.66667 10M1.66667 10L4.58333 7.5M1.66667 10L4.58333 12.5" stroke="#DE2E2E" stroke-width="1.5" stroke-linecap="round" stroke-linejoin="round"/>
<path d="M7.50195 5.83341C7.51204 4.02089 7.59242 3.0393 8.23274 2.39898C8.96497 1.66675 10.1435 1.66675 12.5005 1.66675L13.3338 1.66675C15.6909 1.66675 16.8694 1.66675 17.6016 2.39898C18.3338 3.13121 18.3338 4.30973 18.3338 6.66675L18.3338 13.3334C18.3338 15.6904 18.3338 16.8689 17.6016 17.6012C16.9613 18.2415 15.9796 18.3219 14.167 18.332M7.50195 14.1667C7.51204 15.9793 7.59242 16.9609 8.23274 17.6012C8.76713 18.1356 9.53923 18.28 10.8337 18.319" stroke="#DE2E2E" stroke-width="1.5" stroke-linecap="round"/>
</g>
<defs>
<clipPath id="clip0_318_4080">
<rect width="20" height="20" rx="5" fill="white"/>
</clipPath>
</defs>
</svg>
