<svg width="20" height="20" viewBox="0 0 20 20" fill="none" xmlns="http://www.w3.org/2000/svg">
<g clip-path="url(#clip0_236_7091)">
<path d="M3.06647 9.44444H2.31647H3.06647ZM3.06647 10.8333L2.53823 11.3657C2.83064 11.6559 3.3023 11.6559 3.59471 11.3657L3.06647 10.8333ZM4.99455 9.97685C5.2886 9.68511 5.29046 9.21024 4.99872 8.9162C4.70698 8.62216 4.23211 8.6203 3.93807 8.91204L4.99455 9.97685ZM2.19487 8.91204C1.90083 8.6203 1.42596 8.62216 1.13422 8.9162C0.842476 9.21024 0.844342 9.68511 1.13838 9.97685L2.19487 8.91204ZM15.4064 6.22612C15.6234 6.57899 16.0853 6.68918 16.4381 6.47225C16.791 6.25532 16.9012 5.79341 16.6843 5.44054L15.4064 6.22612ZM14.1431 2.9001C13.7903 2.683 13.3283 2.79297 13.1112 3.14573C12.8941 3.49849 13.0041 3.96046 13.3569 4.17756L14.1431 2.9001ZM10.3799 3.25768C10.7936 3.27795 11.1455 2.959 11.1657 2.54528C11.186 2.13156 10.867 1.77975 10.4533 1.75948L10.3799 3.25768ZM10.0657 1.75C5.79148 1.75 2.31647 5.18938 2.31647 9.44444H3.81647C3.81647 6.02889 6.60877 3.25 10.0657 3.25V1.75ZM2.31647 9.44444L2.31647 10.8333H3.81647L3.81647 9.44444L2.31647 9.44444ZM3.59471 11.3657L4.99455 9.97685L3.93807 8.91204L2.53823 10.3009L3.59471 11.3657ZM3.59471 10.3009L2.19487 8.91204L1.13838 9.97685L2.53823 11.3657L3.59471 10.3009ZM16.6843 5.44054C16.0496 4.40817 15.1773 3.53661 14.1431 2.9001L13.3569 4.17756C14.1918 4.69139 14.8953 5.39477 15.4064 6.22612L16.6843 5.44054ZM10.4533 1.75948C10.3249 1.75318 10.1956 1.75 10.0657 1.75V3.25C10.1711 3.25 10.2759 3.25258 10.3799 3.25768L10.4533 1.75948Z" fill="#0A2056"/>
<path d="M9.90207 17.5V18.25V17.5ZM16.928 10.5555H17.678H16.928ZM16.928 9.16663L17.4553 8.63321C17.1631 8.34443 16.693 8.34443 16.4008 8.63321L16.928 9.16663ZM14.9956 10.0221C14.701 10.3133 14.6983 10.7881 14.9894 11.0827C15.2806 11.3773 15.7555 11.3801 16.0501 11.0889L14.9956 10.0221ZM17.806 11.0889C18.1006 11.3801 18.5755 11.3773 18.8667 11.0827C19.1578 10.7881 19.1551 10.3133 18.8605 10.0221L17.806 11.0889ZM4.53778 13.7727C4.32025 13.4203 3.85815 13.3108 3.50566 13.5284C3.15316 13.7459 3.04376 14.208 3.26129 14.5605L4.53778 13.7727ZM9.6164 16.7437C9.20259 16.7254 8.85232 17.0461 8.83406 17.4599C8.8158 17.8737 9.13646 18.2239 9.55027 18.2422L9.6164 16.7437ZM5.86292 17.1317C6.2177 17.3454 6.67861 17.2311 6.89239 16.8763C7.10617 16.5216 6.99186 16.0607 6.63708 15.8469L5.86292 17.1317ZM9.90207 18.25C14.1883 18.25 17.678 14.8133 17.678 10.5555H16.178C16.178 13.9684 13.3765 16.75 9.90207 16.75V18.25ZM17.678 10.5555V9.16663H16.178V10.5555H17.678ZM16.4008 8.63321L14.9956 10.0221L16.0501 11.0889L17.4553 9.70004L16.4008 8.63321ZM16.4008 9.70004L17.806 11.0889L18.8605 10.0221L17.4553 8.63321L16.4008 9.70004ZM9.55027 18.2422C9.66693 18.2474 9.78422 18.25 9.90207 18.25V16.75C9.80628 16.75 9.71105 16.7478 9.6164 16.7437L9.55027 18.2422ZM3.26129 14.5605C3.90888 15.6099 4.80275 16.4928 5.86292 17.1317L6.63708 15.8469C5.78041 15.3307 5.05921 14.6177 4.53778 13.7727L3.26129 14.5605Z" fill="#0A2056"/>
</g>
<defs>
<clipPath id="clip0_236_7091">
<rect width="20" height="20" fill="white"/>
</clipPath>
</defs>
</svg>
