<svg width="48" height="48" viewBox="0 0 48 48" fill="none" xmlns="http://www.w3.org/2000/svg">
<g clip-path="url(#clip0_89_714)">
<path d="M24 48C37.2548 48 48 37.2548 48 24C48 10.7452 37.2548 0 24 0C10.7452 0 0 10.7452 0 24C0 37.2548 10.7452 48 24 48Z" fill="#2BAA95"/>
<path d="M22.0505 13.4422V19.0657H26.0674V13.4422C26.0674 13.195 25.882 13.0096 25.6348 13.0096H22.5449C22.2359 12.9478 22.0505 13.195 22.0505 13.4422ZM24.028 15.9141C23.5955 15.9141 23.2247 15.5433 23.2247 15.1107C23.2247 14.6781 23.5955 14.3073 24.028 14.3073C24.4606 14.3073 24.8314 14.6781 24.8314 15.1107C24.8314 15.5433 24.4606 15.9141 24.028 15.9141Z" fill="white"/>
<path d="M37.1289 18.0151H26.9324V19.0039H27.8594C28.1066 19.0039 28.292 19.1893 28.292 19.4365C28.292 19.6837 28.1066 19.8691 27.8594 19.8691H20.1965C19.9493 19.8691 19.7639 19.6837 19.7639 19.4365C19.7639 19.1893 19.9493 19.0039 20.1965 19.0039H21.1235V18.0151H10.927C10.4326 18.0151 10 18.4477 10 18.9421V34.3296C10 34.824 10.4326 35.2565 10.927 35.2565H37.0671C37.5615 35.2565 37.9941 34.824 37.9941 34.3296V18.9421C38.0559 18.4477 37.6233 18.0151 37.1289 18.0151ZM22.174 31.9195C20.3201 32.4139 18.4044 32.7229 16.5505 32.7229C14.6966 32.7229 12.7809 32.4757 10.927 31.9195C10.7416 31.8577 10.618 31.6723 10.618 31.4869C10.618 31.3633 10.618 28.6442 12.7191 28.0263C13.3988 27.8409 14.2022 27.4083 14.7584 27.0993C14.5112 26.7903 14.3258 26.3577 14.1404 25.8634C13.7696 25.6162 13.5224 24.9982 13.4606 24.6274C13.337 24.0095 13.5224 23.6387 13.8314 23.3915V23.0825C13.8314 22.4027 14.0168 21.7848 14.4494 21.2904C14.9438 20.796 15.6235 20.5488 16.3651 20.5488H16.7977C17.5392 20.5488 18.219 20.796 18.7134 21.2904C19.146 21.7848 19.3932 22.4027 19.3314 23.0825V23.3915C19.6404 23.5769 19.8257 24.0095 19.7021 24.6274C19.6404 25.06 19.3932 25.6162 19.0224 25.8634C18.8988 26.3577 18.6516 26.7285 18.4044 27.0993C18.9606 27.4083 19.7639 27.8409 20.4437 28.0263C22.483 28.6442 22.5448 31.3633 22.5448 31.4869C22.5448 31.7341 22.3594 31.9195 22.174 31.9195ZM31.32 32.6611H24.3369C24.0897 32.6611 23.9044 32.4757 23.9044 32.2285C23.9044 31.9813 24.0897 31.7959 24.3369 31.7959H31.32C31.5672 31.7959 31.7526 31.9813 31.7526 32.2285C31.7526 32.4139 31.5672 32.6611 31.32 32.6611ZM35.893 29.3858H24.3369C24.0897 29.3858 23.9044 29.2004 23.9044 28.9532C23.9044 28.706 24.0897 28.5206 24.3369 28.5206H35.8312C36.0784 28.5206 36.2638 28.706 36.2638 28.9532C36.3256 29.2004 36.1402 29.3858 35.893 29.3858ZM35.893 26.1106H24.3369C24.0897 26.1106 23.9044 25.9252 23.9044 25.678C23.9044 25.4308 24.0897 25.2454 24.3369 25.2454H35.8312C36.0784 25.2454 36.2638 25.4308 36.2638 25.678C36.3256 25.9252 36.1402 26.1106 35.893 26.1106ZM35.893 22.8353H24.3369C24.0897 22.8353 23.9044 22.6499 23.9044 22.4027C23.9044 22.1555 24.0897 21.9702 24.3369 21.9702H35.8312C36.0784 21.9702 36.2638 22.1555 36.2638 22.4027C36.3256 22.6499 36.1402 22.8353 35.893 22.8353Z" fill="white"/>
<path d="M21.6179 31.178C18.2808 32.0432 14.882 32.0432 11.5449 31.178C11.6067 30.56 11.9157 29.2623 12.9663 28.9533C13.8314 28.7061 14.8202 28.15 15.4381 27.7792C15.8089 28.0264 16.1797 28.15 16.6123 28.15C17.0449 28.15 17.4156 28.0264 17.7864 27.7792C18.4044 28.15 19.3932 28.6443 20.2583 28.9533C21.2471 29.2623 21.4943 30.56 21.6179 31.178Z" fill="white"/>
<path d="M18.7752 24.5039C18.7134 24.8128 18.528 25.1218 18.4662 25.1836C18.2808 25.2454 18.1572 25.369 18.1572 25.4926C17.91 26.5432 17.2921 27.2847 16.5505 27.2847C15.8707 27.2847 15.2528 26.5432 14.9438 25.4926C14.882 25.3072 14.7584 25.1836 14.6348 25.1836C14.573 25.1218 14.3876 24.8128 14.3258 24.5039C14.264 24.3185 14.3258 24.1949 14.3258 24.1949H14.3876C14.573 24.1331 14.7584 23.9477 14.7584 23.7623V23.1443C14.7584 22.7117 14.882 22.341 15.1292 22.032C15.4382 21.723 15.8707 21.5376 16.3651 21.5376H16.7977C17.2921 21.5376 17.7246 21.723 18.0336 22.032C18.3426 22.341 18.4662 22.7117 18.4044 23.1443V23.7623C18.4044 23.9477 18.5898 24.1949 18.7752 24.1949C18.7752 24.1949 18.837 24.2567 18.7752 24.5039Z" fill="white"/>
</g>
<defs>
<clipPath id="clip0_89_714">
<rect width="48" height="48" fill="white"/>
</clipPath>
</defs>
</svg>
