<svg width="101" height="100" viewBox="0 0 101 100" fill="none" xmlns="http://www.w3.org/2000/svg">
<g clip-path="url(#clip0_250_1642)">
<path d="M50.5 1.5625C23.7812 1.5625 2.0625 23.2812 2.0625 50C2.0625 76.7188 23.7812 98.4375 50.5 98.4375C77.2188 98.4375 98.9375 76.7188 98.9375 50C98.9375 23.2812 77.2188 1.5625 50.5 1.5625Z" fill="white"/>
<path d="M50.5 100C23 100 0.5 77.5 0.5 50C0.5 22.5 23 0 50.5 0C78 0 100.5 22.5 100.5 50C100.5 77.5 78 100 50.5 100ZM50.5 3.125C24.7188 3.125 3.625 24.2188 3.625 50C3.625 75.7812 24.7188 96.875 50.5 96.875C76.2812 96.875 97.375 75.7812 97.375 50C97.375 24.2188 76.2812 3.125 50.5 3.125Z" fill="#268852"/>
<path d="M50.5 92.1875C27.2188 92.1875 8.3125 73.2812 8.3125 50C8.3125 26.7188 27.2188 7.8125 50.5 7.8125C73.7812 7.8125 92.6875 26.7188 92.6875 50C92.6875 73.2812 73.7812 92.1875 50.5 92.1875Z" fill="#2BAA64"/>
<path d="M72.8437 39.5312L65.9688 32.6562L45.0312 53.75L35.0312 43.75L28.1562 50.4688L38.1562 60.4688L39.7187 62.1875L45.0312 67.3438L51.75 60.4688L72.8437 39.5312Z" fill="white"/>
<path d="M45.0313 69.5313L25.9688 50.4687L35.0313 41.4063L45.0313 51.4063L66.125 30.3125L75.1875 39.375L45.0313 69.5313ZM30.3438 50.4687L44.875 65L70.5 39.375L65.9688 34.8437L45.0313 55.9375L35.0313 45.9375L30.3438 50.4687Z" fill="#268852"/>
<path d="M38.625 79.6875H41.75V82.8125H38.625V79.6875Z" fill="#268852"/>
<path d="M48.9375 79.6875H52.0625V82.8125H48.9375V79.6875Z" fill="#268852"/>
<path d="M59.25 79.6875H62.375V82.8125H59.25V79.6875Z" fill="#268852"/>
</g>
<defs>
<clipPath id="clip0_250_1642">
<rect width="100" height="100" fill="white" transform="translate(0.5)"/>
</clipPath>
</defs>
</svg>
