<svg width="65" height="50" viewBox="0 0 65 50" fill="none" xmlns="http://www.w3.org/2000/svg">
<path fill-rule="evenodd" clip-rule="evenodd" d="M14.1885 40.9619H31.0625C31.1612 40.9603 31.2592 40.9783 31.3509 41.015C31.4425 41.0517 31.526 41.1062 31.5963 41.1754C31.6667 41.2446 31.7226 41.3272 31.7607 41.4182C31.7989 41.5093 31.8185 41.607 31.8185 41.7057C31.8185 41.8044 31.7989 41.9021 31.7607 41.9932C31.7226 42.0842 31.6667 42.1668 31.5963 42.236C31.526 42.3052 31.4425 42.3598 31.3509 42.3964C31.2592 42.4331 31.1612 42.4512 31.0625 42.4496H14.1885C13.9933 42.4464 13.8072 42.3666 13.6702 42.2275C13.5333 42.0883 13.4566 41.9009 13.4566 41.7057C13.4566 41.5105 13.5333 41.3231 13.6702 41.1839C13.8072 41.0448 13.9933 40.965 14.1885 40.9619ZM24.2301 34.1283C24.2301 34.226 24.2109 34.3228 24.1735 34.4131C24.1362 34.5034 24.0813 34.5854 24.0122 34.6545C23.9431 34.7236 23.8611 34.7784 23.7708 34.8157C23.6804 34.8531 23.5837 34.8723 23.4859 34.8722H13.8891C13.6918 34.8722 13.5025 34.7938 13.363 34.6543C13.2235 34.5148 13.1451 34.3256 13.1451 34.1283C13.1451 33.931 13.2235 33.7417 13.363 33.6022C13.5025 33.4627 13.6918 33.3843 13.8891 33.3843H23.4859C23.6832 33.3844 23.8725 33.4628 24.012 33.6023C24.1515 33.7418 24.23 33.931 24.2301 34.1283ZM17.2426 27.1419C17.2425 27.3392 17.1641 27.5283 17.0246 27.6678C16.8852 27.8073 16.6961 27.8857 16.4988 27.8859H1.74102C1.54582 27.8827 1.35969 27.803 1.22278 27.6638C1.08586 27.5247 1.00912 27.3373 1.00912 27.142C1.00912 26.9468 1.08586 26.7594 1.22278 26.6203C1.35969 26.4811 1.54582 26.4014 1.74102 26.3982H16.4988C16.5966 26.398 16.6934 26.4171 16.7837 26.4544C16.874 26.4917 16.9561 26.5465 17.0252 26.6156C17.0943 26.6847 17.1491 26.7667 17.1864 26.8571C17.2237 26.9474 17.2428 27.0442 17.2426 27.1419ZM0.712891 14.682C0.713046 14.4848 0.791449 14.2957 0.93089 14.1562C1.07033 14.0167 1.25942 13.9382 1.45664 13.938H15.7227C15.92 13.938 16.1092 14.0164 16.2487 14.1559C16.3882 14.2955 16.4666 14.4847 16.4666 14.682C16.4666 14.8793 16.3882 15.0685 16.2487 15.208C16.1092 15.3475 15.92 15.4259 15.7227 15.4259H1.45664C1.25938 15.4258 1.07024 15.3474 0.930775 15.2079C0.791312 15.0684 0.712942 14.8792 0.712891 14.682ZM45.4508 47.4312L62.3242 30.5591C62.3956 30.4866 62.4584 30.4062 62.5113 30.3193L38.317 29.4209C37.6154 29.3919 36.9504 29.1003 36.4538 28.6038C35.9573 28.1074 35.6655 27.4423 35.6365 26.7408L34.7383 2.54585C34.6513 2.59862 34.5709 2.66142 34.4986 2.73296L17.6262 19.6056C17.3831 19.8493 17.2465 20.1794 17.2465 20.5236C17.2465 20.8678 17.3831 21.1979 17.6262 21.4416L43.6152 47.4312C43.8589 47.6743 44.189 47.8108 44.5332 47.8108C44.8774 47.8108 45.2075 47.6743 45.4512 47.4312H45.4508ZM37.3861 1.68218C36.8633 1.16052 36.1549 0.867554 35.4164 0.867554C34.6779 0.867554 33.9695 1.16052 33.4467 1.68218L16.5744 18.5546C16.0527 19.0775 15.7597 19.7859 15.7597 20.5246C15.7597 21.2632 16.0527 21.9716 16.5744 22.4945L42.5633 48.482C43.0861 49.0036 43.7945 49.2966 44.533 49.2966C45.2715 49.2966 45.9799 49.0036 46.5027 48.482L63.3754 31.6101C63.897 31.0874 64.1899 30.3791 64.1899 29.6407C64.1899 28.9022 63.897 28.194 63.3754 27.6712L37.3861 1.68218Z" fill="white"/>
</svg>
