<svg width="20" height="21" viewBox="0 0 20 21" fill="none" xmlns="http://www.w3.org/2000/svg">
<path d="M18.3332 12.1669C18.3332 15.3096 18.3332 16.8809 17.3569 17.8573C16.3805 18.8336 14.8092 18.8336 11.6665 18.8336H8.33317C5.19047 18.8336 3.61913 18.8336 2.64281 17.8573C1.6665 16.8809 1.6665 15.3096 1.6665 12.1669C1.6665 9.0242 1.6665 7.45285 2.64281 6.47654C3.18713 5.93222 3.91641 5.69138 4.99984 5.58481M14.9998 5.58481C16.0833 5.69138 16.8125 5.93222 17.3569 6.47654C17.9012 7.02085 18.142 7.75011 18.2486 8.83351" stroke="black" stroke-opacity="0.8" stroke-width="1.5" stroke-linecap="round"/>
<path d="M8.3335 5.50006H11.6668" stroke="black" stroke-opacity="0.8" stroke-width="1.5" stroke-linecap="round"/>
<path d="M9.1665 8.00006H10.8332" stroke="black" stroke-opacity="0.8" stroke-width="1.5" stroke-linecap="round"/>
<path d="M11.6667 2.16891C13.0888 2.18097 13.8728 2.25993 14.3898 2.77694C15 3.38713 15 4.36922 15 6.33341V8.05278C15 8.43665 15 8.62858 14.9213 8.79656C14.8426 8.96453 14.6952 9.08741 14.4003 9.33315L13.8006 9.8329M8.33333 2.16891C6.9112 2.18097 6.1272 2.25993 5.61019 2.77694C5 3.38713 5 4.36922 5 6.33341V8.05278C5 8.43665 5 8.62858 5.07868 8.79656C5.15735 8.96453 5.3048 9.08741 5.59969 9.33315L6.79908 10.3326C8.32961 11.6081 9.09488 12.2458 10 12.2458C10.5411 12.2458 11.0322 12.0179 11.6667 11.5621" stroke="black" stroke-opacity="0.8" stroke-width="1.5" stroke-linecap="round"/>
</svg>
