<svg width="20" height="21" viewBox="0 0 20 21" fill="none" xmlns="http://www.w3.org/2000/svg">
<path d="M5.83317 3.28154C7.05889 2.5725 8.48197 2.16669 9.99984 2.16669C14.6022 2.16669 18.3332 5.89765 18.3332 10.5C18.3332 15.1024 14.6022 18.8334 9.99984 18.8334C5.39746 18.8334 1.6665 15.1024 1.6665 10.5C1.6665 8.98216 2.07231 7.55908 2.78136 6.33335" stroke="black" stroke-opacity="0.8" stroke-width="1.5" stroke-linecap="round"/>
<path d="M12.3569 16.3926C12.0473 17.1664 11.6799 17.7802 11.2754 18.199C10.871 18.6178 10.4376 18.8334 9.99984 18.8334C9.5621 18.8334 9.12864 18.6178 8.72423 18.199C8.31981 17.7802 7.95234 17.1664 7.64281 16.3926C7.33329 15.6188 7.08775 14.7001 6.92024 13.6891C6.75272 12.678 6.6665 11.5944 6.6665 10.5C6.6665 9.40569 6.75272 8.32206 6.92024 7.31101C7.08775 6.29997 7.33329 5.38131 7.64281 4.60748C7.95234 3.83366 8.31981 3.21984 8.72423 2.80105C9.12864 2.38226 9.5621 2.16671 9.99984 2.16671C10.4376 2.16671 10.871 2.38226 11.2754 2.80104C11.6799 3.21983 12.0473 3.83366 12.3569 4.60748C12.6664 5.38131 12.9119 6.29997 13.0794 7.31101C13.247 8.32206 13.3332 9.40569 13.3332 10.5C13.3332 11.5944 13.247 12.678 13.0794 13.6891" stroke="black" stroke-opacity="0.8" stroke-width="1.5" stroke-linecap="round"/>
<path d="M1.6665 10.5H8.33317M18.3332 10.5H11.6665" stroke="black" stroke-opacity="0.8" stroke-width="1.5" stroke-linecap="round"/>
</svg>
