<svg width="51" height="40" viewBox="0 0 51 40" fill="none" xmlns="http://www.w3.org/2000/svg">
<path fill-rule="evenodd" clip-rule="evenodd" d="M10.8508 32.7695H24.35C24.429 32.7683 24.5074 32.7827 24.5807 32.812C24.654 32.8414 24.7208 32.885 24.7771 32.9404C24.8333 32.9958 24.8781 33.0618 24.9086 33.1346C24.9391 33.2075 24.9548 33.2857 24.9548 33.3646C24.9548 33.4436 24.9391 33.5218 24.9086 33.5946C24.8781 33.6674 24.8333 33.7335 24.7771 33.7889C24.7208 33.8442 24.654 33.8879 24.5807 33.9172C24.5074 33.9465 24.429 33.961 24.35 33.9597H10.8508C10.6946 33.9572 10.5457 33.8934 10.4362 33.782C10.3267 33.6707 10.2653 33.5208 10.2653 33.3646C10.2653 33.2084 10.3267 33.0585 10.4362 32.9472C10.5457 32.8359 10.6946 32.7721 10.8508 32.7695ZM18.8841 27.3027C18.8841 27.3808 18.8687 27.4583 18.8388 27.5305C18.8089 27.6027 18.7651 27.6684 18.7098 27.7237C18.6545 27.7789 18.5888 27.8228 18.5166 27.8526C18.4444 27.8825 18.3669 27.8979 18.2887 27.8978H10.6112C10.4534 27.8978 10.302 27.8351 10.1904 27.7235C10.0788 27.6119 10.0161 27.4605 10.0161 27.3027C10.0161 27.1448 10.0788 26.9934 10.1904 26.8818C10.302 26.7702 10.4534 26.7075 10.6112 26.7075H18.2887C18.4466 26.7076 18.598 26.7703 18.7096 26.8819C18.8212 26.9935 18.884 27.1448 18.8841 27.3027ZM13.2941 21.7136C13.294 21.8714 13.2313 22.0227 13.1197 22.1343C13.0081 22.2459 12.8569 22.3086 12.6991 22.3088H0.892812C0.736658 22.3062 0.587755 22.2424 0.47822 22.1311C0.368686 22.0198 0.307299 21.8699 0.307299 21.7137C0.307299 21.5575 0.368686 21.4076 0.47822 21.2963C0.587755 21.1849 0.736658 21.1211 0.892812 21.1186H12.6991C12.7772 21.1184 12.8547 21.1337 12.927 21.1636C12.9992 21.1934 13.0649 21.2372 13.1202 21.2925C13.1754 21.3478 13.2193 21.4134 13.2491 21.4857C13.2789 21.558 13.2942 21.6354 13.2941 21.7136ZM0.0703125 11.7456C0.0704366 11.5879 0.133159 11.4366 0.244712 11.325C0.356265 11.2134 0.507532 11.1506 0.665312 11.1505H12.0781C12.236 11.1505 12.3873 11.2132 12.499 11.3248C12.6106 11.4364 12.6733 11.5878 12.6733 11.7456C12.6733 11.9035 12.6106 12.0549 12.499 12.1665C12.3873 12.2781 12.236 12.3408 12.0781 12.3408H0.665312C0.507507 12.3407 0.356191 12.278 0.24462 12.1664C0.13305 12.0548 0.0703539 11.9034 0.0703125 11.7456ZM35.8606 37.945L49.3594 24.4474C49.4165 24.3894 49.4667 24.325 49.5091 24.2555L30.1536 23.5367C29.5923 23.5136 29.0603 23.2803 28.663 22.8831C28.2658 22.4859 28.0324 21.9539 28.0092 21.3927L27.2906 2.03673C27.2211 2.07895 27.1567 2.12919 27.0989 2.18642L13.6009 15.6845C13.4064 15.8795 13.2972 16.1436 13.2972 16.4189C13.2972 16.6943 13.4064 16.9584 13.6009 17.1533L34.3922 37.945C34.5871 38.1395 34.8512 38.2487 35.1266 38.2487C35.4019 38.2487 35.666 38.1395 35.8609 37.945H35.8606ZM29.4089 1.34579C28.9907 0.928468 28.424 0.694092 27.8331 0.694092C27.2423 0.694092 26.6756 0.928468 26.2573 1.34579L12.7595 14.8438C12.3421 15.262 12.1077 15.8288 12.1077 16.4197C12.1077 17.0106 12.3421 17.5774 12.7595 17.9956L33.5506 38.7856C33.9689 39.203 34.5356 39.4373 35.1264 39.4373C35.7172 39.4373 36.2839 39.203 36.7022 38.7856L50.2003 25.2881C50.6176 24.87 50.8519 24.3033 50.8519 23.7126C50.8519 23.1218 50.6176 22.5552 50.2003 22.137L29.4089 1.34579Z" fill="white"/>
</svg>
